<svg width="30" height="30" viewBox="0 0 30 30" fill="none" xmlns="http://www.w3.org/2000/svg">
<path d="M18.9946 5.54094L19.0666 5.77794L19.9291 8.99844H13.5016C12.3538 8.99837 11.2494 9.43692 10.4143 10.2244C9.57913 11.0118 9.07648 12.0886 9.00914 13.2344L9.00164 13.4984V21.5204C8.23541 21.5038 7.49265 21.2529 6.8732 20.8016C6.25376 20.3503 5.78734 19.7202 5.53664 18.9959L5.45864 18.7409L3.12914 10.0484C2.88236 9.12888 2.99459 8.14988 3.44307 7.31002C3.89155 6.47017 4.6427 5.83234 5.54414 5.52594L5.78114 5.45544L14.4736 3.12594C15.3525 2.89035 16.2869 2.98231 17.103 3.38467C17.919 3.78704 18.5609 4.47236 18.9091 5.31294L18.9946 5.54094Z" fill="#7D8CA0"/>
<rect x="10.4761" y="10" width="16.6667" height="16.6667" rx="3" fill="#7D8CA0"/>
</svg>
