<svg width="23" height="28" viewBox="0 0 23 28" fill="none" xmlns="http://www.w3.org/2000/svg">
<path d="M17.6563 2.24519L17.7989 2.32752C19.0309 3.03878 20.0582 3.63188 20.8105 4.2124C21.6045 4.82514 22.2347 5.52845 22.4987 6.51358C22.7627 7.4987 22.5685 8.42289 22.1873 9.35054C21.9226 9.99443 21.5335 10.718 21.0646 11.5433L20.0587 10.9455L20.0457 10.9379L9.08068 4.60718L8.05523 4.0028C8.53038 3.19357 8.95848 2.5024 9.37996 1.95624C9.9927 1.16222 10.696 0.53201 11.6811 0.268047C12.6663 0.00408406 13.5904 0.198208 14.5181 0.579476C15.397 0.94069 16.4243 1.53387 17.6563 2.24519Z" fill="#29303A"/>
<path d="M6.86548 6.05839L1.35869 15.5962C0.887194 16.4114 0.514383 17.0559 0.37626 17.7889C0.238137 18.522 0.35085 19.258 0.493398 20.1888L0.531803 20.4404C0.794931 22.1684 1.01182 23.5927 1.33893 24.6728C1.68105 25.8024 2.20696 26.7801 3.24131 27.3773C4.27565 27.9745 5.38535 27.9411 6.53468 27.6726C7.63361 27.4158 8.97554 26.8915 10.6036 26.2554L10.8407 26.1628C11.718 25.8209 12.4118 25.5505 12.9776 25.0643C13.5434 24.5782 13.9152 23.933 14.3853 23.1172L19.8791 13.6015L18.8517 12.9909L7.87934 6.656L6.86548 6.05839Z" fill="#29303A"/>
</svg>
