<svg width="26" height="26" viewBox="0 0 26 26" fill="none" xmlns="http://www.w3.org/2000/svg">
<circle cx="13" cy="13" r="12.5" stroke="#777E91"/>
<path fill-rule="evenodd" clip-rule="evenodd" d="M16.7439 7.10275C16.7772 7.12875 17.8925 7.99542 17.8925 7.99542C18.2979 8.23675 18.6145 8.66809 18.7345 9.17875C18.8539 9.68409 18.7672 10.2054 18.4892 10.6461C18.4873 10.649 18.4855 10.6519 18.4791 10.6606L18.474 10.6672C18.4289 10.7267 18.2327 10.9747 17.2427 12.2151C17.2335 12.2314 17.2231 12.2466 17.2117 12.2614C17.195 12.2832 17.1769 12.3033 17.1575 12.3215C17.0899 12.4065 17.0186 12.4959 16.9436 12.5898L16.7917 12.7801C16.4781 13.1728 16.1062 13.6384 15.665 14.1906L15.4386 14.474C14.5868 15.5402 13.496 16.9052 12.0985 18.6534C11.7925 19.0348 11.3339 19.2568 10.8412 19.2628L8.41519 19.2934H8.40852C8.17719 19.2934 7.97586 19.1348 7.92186 18.9088L7.37586 16.5948C7.26319 16.1154 7.37519 15.6208 7.68252 15.2368L13.9625 7.38209C13.9652 7.37942 13.9672 7.37609 13.9699 7.37342C14.6585 6.55009 15.9039 6.42875 16.7439 7.10275ZM13.2623 9.85833L8.46319 15.8614C8.34919 16.0041 8.30719 16.1881 8.34919 16.3648L8.80319 18.2881L10.8292 18.2628C11.0219 18.2608 11.1999 18.1748 11.3179 18.0281C11.9255 17.2678 12.6892 16.3122 13.4744 15.3297L13.7522 14.982L14.0305 14.6338C14.7669 13.7123 15.4944 12.8017 16.1031 12.0396L13.2623 9.85833ZM14.7399 8.01142L13.887 9.07699L16.7275 11.2576C17.2743 10.5728 17.6339 10.1218 17.6672 10.0788C17.7765 9.90142 17.8192 9.65075 17.7619 9.40942C17.7032 9.16209 17.5492 8.95209 17.3272 8.81809C17.2799 8.78542 16.1565 7.91342 16.1219 7.88609C15.6992 7.54742 15.0825 7.60609 14.7399 8.01142Z" fill="#777E91"/>
</svg>
