<svg width="20" height="20" viewBox="0 0 20 20" fill="none" xmlns="http://www.w3.org/2000/svg">
<path d="M14 4C14 3.46957 13.7893 2.96086 13.4142 2.58579C13.0391 2.21071 12.5304 2 12 2H6C5.46957 2 4.96086 2.21071 4.58579 2.58579C4.21071 2.96086 4 3.46957 4 4V14C4 14.5304 4.21071 15.0391 4.58579 15.4142C4.96086 15.7893 5.46957 16 6 16H12C12.5304 16 13.0391 15.7893 13.4142 15.4142C13.7893 15.0391 14 14.5304 14 14V4ZM16 6C16 5.64894 15.9076 5.30406 15.732 5.00003C15.5565 4.696 15.304 4.44353 15 4.268V14.5C15 15.163 14.7366 15.7989 14.2678 16.2678C13.7989 16.7366 13.163 17 12.5 17H6.268C6.44353 17.304 6.696 17.5565 7.00003 17.732C7.30406 17.9076 7.64894 18 8 18H12.5C13.4283 18 14.3185 17.6313 14.9749 16.9749C15.6313 16.3185 16 15.4283 16 14.5V6Z" fill="#777E91"/>
</svg>
