<svg width="37" height="37" viewBox="0 0 37 37" fill="none" xmlns="http://www.w3.org/2000/svg">
<path d="M16.6496 11.1008C16.6496 12.5727 16.0649 13.9844 15.0241 15.0252C13.9832 16.0661 12.5716 16.6508 11.0996 16.6508C9.62766 16.6508 8.21599 16.0661 7.17517 15.0252C6.13434 13.9844 5.54961 12.5727 5.54961 11.1008C5.54961 9.62883 6.13434 8.21717 7.17517 7.17634C8.21599 6.13551 9.62766 5.55078 11.0996 5.55078C12.5716 5.55078 13.9832 6.13551 15.0241 7.17634C16.0649 8.21717 16.6496 9.62883 16.6496 11.1008ZM31.4496 11.1008C31.4496 11.8296 31.3061 12.5513 31.0271 13.2247C30.7482 13.898 30.3394 14.5099 29.8241 15.0252C29.3087 15.5406 28.6969 15.9494 28.0235 16.2283C27.3501 16.5072 26.6284 16.6508 25.8996 16.6508C25.1708 16.6508 24.4491 16.5072 23.7757 16.2283C23.1024 15.9494 22.4905 15.5406 21.9752 15.0252C21.4598 14.5099 21.051 13.898 20.7721 13.2247C20.4932 12.5513 20.3496 11.8296 20.3496 11.1008C20.3496 9.62883 20.9343 8.21717 21.9752 7.17634C23.016 6.13551 24.4277 5.55078 25.8996 5.55078C27.3716 5.55078 28.7832 6.13551 29.8241 7.17634C30.8649 8.21717 31.4496 9.62883 31.4496 11.1008ZM23.9201 31.4508C24.0052 30.8458 24.0496 30.2298 24.0496 29.6008C24.0539 26.6942 23.076 23.8714 21.2746 21.5903C22.6808 20.7784 24.2759 20.351 25.8995 20.351C27.5232 20.351 29.1183 20.7784 30.5245 21.5902C31.9307 22.4021 33.0984 23.5697 33.9103 24.9759C34.7221 26.382 35.1496 27.9771 35.1496 29.6008V31.4508H23.9201ZM11.0996 20.3508C13.5529 20.3508 15.9056 21.3253 17.6403 23.06C19.3751 24.7948 20.3496 27.1475 20.3496 29.6008V31.4508H1.84961V29.6008C1.84961 27.1475 2.82416 24.7948 4.55887 23.06C6.29358 21.3253 8.64636 20.3508 11.0996 20.3508Z" fill="#29303A"/>
</svg>
