<svg width="37" height="37" viewBox="0 0 37 37" fill="none" xmlns="http://www.w3.org/2000/svg">
<path d="M33.0068 17.8532L19.1318 3.97815C18.5768 3.42315 17.8059 3.08398 16.958 3.08398H6.16634C4.47051 3.08398 3.08301 4.47148 3.08301 6.16732V16.959C3.08301 17.8069 3.42217 18.5777 3.99259 19.1482L17.8676 33.0232C18.4226 33.5782 19.1934 33.9173 20.0413 33.9173C20.8893 33.9173 21.6601 33.5782 22.2151 33.0077L33.0068 22.2161C33.5772 21.6611 33.9163 20.8902 33.9163 20.0423C33.9163 19.1944 33.5618 18.4082 33.0068 17.8532ZM8.47884 10.7923C7.19926 10.7923 6.16634 9.7594 6.16634 8.47982C6.16634 7.20023 7.19926 6.16732 8.47884 6.16732C9.75842 6.16732 10.7913 7.20023 10.7913 8.47982C10.7913 9.7594 9.75842 10.7923 8.47884 10.7923Z" fill="#29303A"/>
</svg>
