<svg width="68" height="68" viewBox="0 0 68 68" fill="none" xmlns="http://www.w3.org/2000/svg">
<path d="M17.7086 55.2493C13.1725 55.2493 9.13779 52.3452 7.67295 48.0215L7.57379 47.6957C7.22812 46.551 7.08362 45.5877 7.08362 44.6243V25.3066L0.209952 48.251C-0.674048 51.6255 1.34045 55.1247 4.72062 56.0568L48.5325 67.7897C49.0793 67.9313 49.6261 67.9993 50.1645 67.9993C52.9865 67.9993 55.5648 66.1265 56.2873 63.3668L58.8401 55.2493H17.7086Z" fill="#E0E0E0"/>
<path d="M25.4997 25.4993C28.6248 25.4993 31.1663 22.9578 31.1663 19.8327C31.1663 16.7075 28.6248 14.166 25.4997 14.166C22.3745 14.166 19.833 16.7075 19.833 19.8327C19.833 22.9578 22.3745 25.4993 25.4997 25.4993Z" fill="#E0E0E0"/>
<path d="M60.9163 5.66602H18.4163C14.512 5.66602 11.333 8.84502 11.333 12.7494V43.916C11.333 47.8204 14.512 50.9994 18.4163 50.9994H60.9163C64.8207 50.9994 67.9997 47.8204 67.9997 43.916V12.7494C67.9997 8.84502 64.8207 5.66602 60.9163 5.66602ZM18.4163 11.3327H60.9163C61.6983 11.3327 62.333 11.9674 62.333 12.7494V32.8632L53.3825 22.4195C52.4333 21.306 51.0592 20.711 49.583 20.677C48.1153 20.6855 46.7383 21.3372 45.7977 22.4649L35.2747 35.0959L31.8463 31.676C29.9083 29.738 26.7548 29.738 24.8197 31.676L16.9997 39.4932V12.7494C16.9997 11.9674 17.6343 11.3327 18.4163 11.3327V11.3327Z" fill="#E0E0E0"/>
</svg>
