<svg width="37" height="37" viewBox="0 0 37 37" fill="none" xmlns="http://www.w3.org/2000/svg">
<path d="M3.63459 10.4281C3.63459 9.35003 3.63459 8.272 3.63459 7.19396C3.63459 5.1231 5.13021 3.63317 7.20106 3.62891C9.35714 3.62891 11.5132 3.62891 13.6693 3.62891C15.7245 3.62891 17.2201 5.12026 17.2201 7.17123C17.2268 9.33867 17.2268 11.5061 17.2201 13.6735C17.2201 15.7231 15.7203 17.2159 13.6693 17.2244C11.5019 17.2301 9.33488 17.2301 7.16839 17.2244C5.13731 17.2244 3.64027 15.7245 3.62891 13.6977C3.63033 12.6097 3.63459 11.5175 3.63459 10.4281Z" fill="#29303A"/>
<path d="M28.206 17.2226C27.128 17.2226 26.0499 17.2226 24.9719 17.2226C22.9039 17.2155 21.4139 15.7242 21.4097 13.6533C21.4097 11.4963 21.4097 9.33974 21.4097 7.18366C21.4097 5.13127 22.9053 3.63281 24.9534 3.63281C27.1209 3.63281 29.2878 3.63281 31.4543 3.63281C33.5053 3.63281 34.9938 5.13127 35.0052 7.18366C35.0108 9.33974 35.0108 11.4958 35.0052 13.6519C35.0052 15.7242 33.511 17.2155 31.4444 17.2226C30.3621 17.2255 29.284 17.2226 28.206 17.2226Z" fill="#29303A"/>
<path d="M10.4321 34.9984C9.35403 34.9984 8.27457 34.9984 7.19653 34.9984C5.12994 34.9984 3.64568 33.5013 3.63574 31.429C3.63574 29.273 3.63574 27.1164 3.63574 24.9594C3.63574 22.907 5.13136 21.4086 7.18659 21.4086C9.35403 21.4029 11.521 21.4029 13.6875 21.4086C15.7385 21.4086 17.227 22.9056 17.2383 24.9594C17.244 27.1164 17.244 29.273 17.2383 31.429C17.2383 33.5013 15.7456 34.9941 13.679 34.9998C12.5881 35.0012 11.5101 34.9984 10.4321 34.9984Z" fill="#29303A"/>
<path d="M28.206 21.4043C29.551 21.404 30.8658 21.8027 31.984 22.5499C33.1023 23.2971 33.9738 24.3593 34.4883 25.602C35.0027 26.8447 35.1369 28.212 34.874 29.531C34.6111 30.85 33.9628 32.0614 33.0111 33.0118C32.0595 33.9622 30.8473 34.609 29.528 34.8703C28.2087 35.1316 26.8415 34.9956 25.5995 34.4796C24.3574 33.9636 23.2964 33.0908 22.5506 31.9716C21.8048 30.8524 21.4077 29.5371 21.4097 28.1921C21.4127 26.3913 22.13 24.6653 23.4041 23.3927C24.6783 22.1202 26.4052 21.405 28.206 21.4043Z" fill="#29303A"/>
</svg>
