<svg width="37" height="18" viewBox="0 0 37 18" fill="none" xmlns="http://www.w3.org/2000/svg">
<path d="M8.31249 17.3125C6.82498 17.3122 5.3648 16.9127 4.08427 16.1558C2.80375 15.3988 1.7498 14.3122 1.03238 13.0091C0.314963 11.706 -0.0396468 10.2343 0.00554726 8.74745C0.0507413 7.26062 0.494083 5.81316 1.28932 4.55606C2.08456 3.29896 3.20257 2.27829 4.5267 1.60052C5.85083 0.922743 7.33258 0.612705 8.81737 0.702744C10.3022 0.792784 11.7356 1.2796 12.9681 2.11241C14.2006 2.94523 15.1871 4.09352 15.8246 5.4375H33.25L36.8125 9L33.25 12.5625L30.875 10.1875L28.5 12.5625L26.125 10.1875L23.75 12.5625L21.375 10.1875L19 12.5625H15.8246C15.1503 13.984 14.0865 15.185 12.7567 16.0258C11.4269 16.8666 9.88581 17.3128 8.31249 17.3125ZM5.93749 11.375C6.56738 11.375 7.17147 11.1248 7.61687 10.6794C8.06227 10.234 8.31249 9.62989 8.31249 9C8.31249 8.37011 8.06227 7.76602 7.61687 7.32062C7.17147 6.87523 6.56738 6.625 5.93749 6.625C5.3076 6.625 4.70351 6.87523 4.25811 7.32062C3.81272 7.76602 3.56249 8.37011 3.56249 9C3.56249 9.62989 3.81272 10.234 4.25811 10.6794C4.70351 11.1248 5.3076 11.375 5.93749 11.375Z" fill="#29303A"/>
</svg>
