<svg width="43" height="30" viewBox="0 0 43 30" fill="none" xmlns="http://www.w3.org/2000/svg">
<rect x="0.5" y="0.5" width="41.5" height="29" rx="3.5" fill="white" stroke="#B2BCCA"/>
<path fill-rule="evenodd" clip-rule="evenodd" d="M21.4737 21.0369C19.9937 22.2844 18.0738 23.0375 15.9759 23.0375C11.2948 23.0375 7.5 19.2879 7.5 14.6625C7.5 10.0372 11.2948 6.28754 15.9759 6.28754C18.0738 6.28754 19.9937 7.04066 21.4737 8.28821C22.9538 7.04066 24.8737 6.28754 26.9716 6.28754C31.6527 6.28754 35.4474 10.0372 35.4474 14.6625C35.4474 19.2879 31.6527 23.0375 26.9716 23.0375C24.8737 23.0375 22.9538 22.2844 21.4737 21.0369Z" fill="#ED0006"/>
<path fill-rule="evenodd" clip-rule="evenodd" d="M21.4746 21.0369C23.2971 19.5008 24.4527 17.215 24.4527 14.6625C24.4527 12.1101 23.2971 9.82428 21.4746 8.28815C22.9547 7.04064 24.8745 6.28754 26.9724 6.28754C31.6535 6.28754 35.4483 10.0372 35.4483 14.6625C35.4483 19.2879 31.6535 23.0375 26.9724 23.0375C24.8745 23.0375 22.9547 22.2844 21.4746 21.0369Z" fill="#F9A000"/>
<path fill-rule="evenodd" clip-rule="evenodd" d="M21.4741 21.0368C23.2965 19.5007 24.4521 17.2149 24.4521 14.6625C24.4521 12.1101 23.2965 9.82434 21.4741 8.28821C19.6517 9.82434 18.4961 12.1101 18.4961 14.6625C18.4961 17.2149 19.6517 19.5007 21.4741 21.0368Z" fill="#FD6020"/>
</svg>
