<svg width="43" height="30" viewBox="0 0 43 30" fill="none" xmlns="http://www.w3.org/2000/svg">
<rect x="0.5" y="0.5" width="41.5" height="29" rx="3.5" fill="white" stroke="#B2BCCA"/>
<path fill-rule="evenodd" clip-rule="evenodd" d="M18.2658 23.0605L18.5417 21.2491L17.9271 21.2343H14.9922L17.0319 7.86724C17.0382 7.82677 17.0587 7.78919 17.0887 7.76246C17.1189 7.73573 17.1573 7.72107 17.1975 7.72107H22.1462C23.7893 7.72107 24.923 8.07436 25.5149 8.77179C25.7924 9.09897 25.9692 9.44096 26.0547 9.81717C26.1444 10.212 26.1459 10.6837 26.0584 11.2591L26.0521 11.3009V11.6696L26.3296 11.8322C26.5633 11.9603 26.749 12.1069 26.8915 12.2748C27.1288 12.5546 27.2824 12.9102 27.3472 13.3316C27.4143 13.7651 27.3922 14.2811 27.2824 14.8652C27.1557 15.5369 26.951 16.1221 26.6745 16.6008C26.4203 17.0419 26.0964 17.4079 25.7117 17.6914C25.3445 17.9608 24.9083 18.1654 24.415 18.2963C23.9369 18.4249 23.3919 18.4898 22.7941 18.4898H22.409C22.1337 18.4898 21.8662 18.5923 21.6562 18.776C21.4456 18.9636 21.3064 19.2199 21.2637 19.5002L21.2346 19.6633L20.7471 22.8561L20.725 22.9733C20.7191 23.0104 20.7091 23.0289 20.6943 23.0414C20.6811 23.0528 20.6622 23.0605 20.6438 23.0605H18.2658" fill="#28356A"/>
<path fill-rule="evenodd" clip-rule="evenodd" d="M26.5941 11.3434C26.5795 11.441 26.5625 11.5408 26.5436 11.6432C25.891 15.1065 23.6582 16.303 20.8066 16.303H19.3546C19.0059 16.303 18.7119 16.5646 18.6577 16.9202L17.7038 23.1743C17.6685 23.4078 17.8426 23.6182 18.0704 23.6182H20.6457C20.9505 23.6182 21.2096 23.3892 21.2576 23.0784L21.2829 22.9432L21.7678 19.7629L21.7989 19.5885C21.8464 19.2766 22.106 19.0475 22.4109 19.0475H22.796C25.291 19.0475 27.2442 18.0006 27.8151 14.9708C28.0534 13.7051 27.9301 12.6483 27.299 11.9051C27.1081 11.681 26.8712 11.4949 26.5941 11.3434" fill="#2F80ED"/>
<path fill-rule="evenodd" clip-rule="evenodd" d="M25.9101 11.0621C25.8103 11.032 25.7074 11.0049 25.6019 10.9803C25.4958 10.9563 25.3872 10.9351 25.2753 10.9164C24.8839 10.851 24.4549 10.82 23.9954 10.82H20.1166C20.021 10.82 19.9303 10.8423 19.8491 10.8827C19.6702 10.9716 19.5373 11.1466 19.5051 11.3609L18.6799 16.7628L18.6562 16.9203C18.7105 16.5647 19.0044 16.3031 19.3532 16.3031H20.8051C23.6567 16.3031 25.8895 15.106 26.5421 11.6433C26.5616 11.5408 26.578 11.4411 26.5926 11.3435C26.4276 11.2529 26.2488 11.1755 26.0562 11.1095C26.0086 11.0931 25.9596 11.0774 25.9101 11.0621" fill="#28356A"/>
<path fill-rule="evenodd" clip-rule="evenodd" d="M19.5058 11.3609C19.538 11.1466 19.6709 10.9716 19.8498 10.8833C19.9316 10.8428 20.0217 10.8205 20.1173 10.8205H23.9961C24.4556 10.8205 24.8846 10.8517 25.2761 10.9171C25.3879 10.9355 25.4965 10.9569 25.6026 10.9809C25.7082 11.0053 25.811 11.0327 25.9108 11.0626C25.9603 11.0779 26.0093 11.0938 26.0574 11.1095C26.2499 11.1755 26.4289 11.2536 26.594 11.3435C26.7881 10.0637 26.5923 9.19228 25.9229 8.40321C25.1847 7.53441 23.8526 7.16263 22.148 7.16263H17.1991C16.8509 7.16263 16.5539 7.42428 16.5001 7.78047L14.4389 21.285C14.3982 21.5521 14.5976 21.7931 14.8583 21.7931H17.9135L19.5058 11.3609" fill="#28356A"/>
</svg>
