<svg width="26" height="26" viewBox="0 0 26 26" fill="none" xmlns="http://www.w3.org/2000/svg">
<path d="M24.7625 12.475L13.5125 1.225C13.0625 0.775 12.4375 0.5 11.75 0.5H3C1.625 0.5 0.5 1.625 0.5 3V11.75C0.5 12.4375 0.775 13.0625 1.2375 13.525L12.4875 24.775C12.9375 25.225 13.5625 25.5 14.25 25.5C14.9375 25.5 15.5625 25.225 16.0125 24.7625L24.7625 16.0125C25.225 15.5625 25.5 14.9375 25.5 14.25C25.5 13.5625 25.2125 12.925 24.7625 12.475ZM4.875 6.75C3.8375 6.75 3 5.9125 3 4.875C3 3.8375 3.8375 3 4.875 3C5.9125 3 6.75 3.8375 6.75 4.875C6.75 5.9125 5.9125 6.75 4.875 6.75Z" fill="#7D8CA0"/>
</svg>
