<svg width="26" height="26" viewBox="0 0 26 26" fill="none" xmlns="http://www.w3.org/2000/svg">
<path d="M18.6078 9.38551C20.2798 10.5849 22.328 11.2907 24.5402 11.2907V7.01858C24.1215 7.01866 23.704 6.97485 23.2944 6.88776V10.2505C21.0823 10.2505 19.0344 9.54478 17.362 8.34543V17.0635C17.362 21.4248 13.8391 24.96 9.49359 24.96C7.87219 24.96 6.36517 24.4681 5.11328 23.6244C6.5421 25.0905 8.5347 26.0001 10.7392 26.0001C15.0849 26.0001 18.608 22.4648 18.608 18.1034V9.38551H18.6078ZM20.1447 5.07549C19.2902 4.13866 18.7292 2.92798 18.6078 1.58952V1.04004H17.4272C17.7244 2.74122 18.738 4.19461 20.1447 5.07549ZM7.86179 20.2777C7.38439 19.6495 7.12641 18.8811 7.12757 18.0909C7.12757 16.0963 8.73892 14.479 10.7269 14.479C11.0974 14.4789 11.4657 14.5358 11.8187 14.6482V10.2807C11.4061 10.2239 10.9897 10.1998 10.5734 10.2087V13.6082C10.2201 13.4957 9.85164 13.4386 9.48106 13.439C7.49308 13.439 5.88181 15.0561 5.88181 17.051C5.88181 18.4616 6.68722 19.6828 7.86179 20.2777Z" fill="#FF004F"/>
<path d="M17.3624 8.34535C19.0348 9.54469 21.0827 10.2504 23.2948 10.2504V6.88768C22.06 6.62373 20.9669 5.97618 20.1451 5.07549C18.7383 4.19452 17.7248 2.74113 17.4276 1.04004H14.3265V18.1032C14.3194 20.0925 12.7108 21.7032 10.7271 21.7032C9.55815 21.7032 8.51964 21.144 7.86193 20.2777C6.68744 19.6828 5.88203 18.4615 5.88203 17.0511C5.88203 15.0564 7.4933 13.4391 9.48128 13.4391C9.86217 13.4391 10.2293 13.4986 10.5736 13.6083V10.2087C6.30451 10.2973 2.87109 13.798 2.87109 18.1033C2.87109 20.2525 3.72609 22.2009 5.11377 23.6245C6.36565 24.4681 7.87268 24.9601 9.49408 24.9601C13.8396 24.9601 17.3625 21.4247 17.3625 17.0635V8.34535H17.3624Z" fill="black"/>
<path d="M23.2944 6.88762V5.97836C22.181 5.98005 21.0894 5.66712 20.1448 5.07535C20.981 5.99415 22.0822 6.62769 23.2944 6.88762ZM17.4273 1.03998C17.3989 0.877404 17.3771 0.713755 17.362 0.549482V0H13.0802V17.0634C13.0733 19.0523 11.4648 20.663 9.48094 20.663C8.8985 20.663 8.34858 20.5243 7.86158 20.2777C8.5193 21.1439 9.55781 21.703 10.7268 21.703C12.7103 21.703 14.3192 20.0925 14.3261 18.1033V1.03998H17.4273ZM10.5735 10.2087V9.24072C10.2157 9.19164 9.85498 9.16701 9.49382 9.16719C5.14791 9.1671 1.625 12.7025 1.625 17.0634C1.625 19.7974 3.00956 22.2069 5.11352 23.6242C3.72584 22.2007 2.87084 20.2523 2.87084 18.1032C2.87084 13.7979 6.30417 10.2972 10.5735 10.2087Z" fill="#00F2EA"/>
</svg>
