<svg width="26" height="26" viewBox="0 0 26 26" fill="none" xmlns="http://www.w3.org/2000/svg">
<path d="M8.17648 23.5629C17.9878 23.5629 23.3542 15.4342 23.3542 8.38512C23.3542 8.15424 23.3542 7.9244 23.3386 7.6956C24.3826 6.94046 25.2838 6.00547 26 4.9344C25.0265 5.366 23.9937 5.64891 22.9362 5.77368C24.0498 5.10709 24.8833 4.05852 25.2814 2.8232C24.2343 3.4446 23.0887 3.88251 21.8941 4.118C21.0898 3.26279 20.0261 2.69649 18.8675 2.50674C17.709 2.31698 16.5202 2.51435 15.4851 3.0683C14.4501 3.62225 13.6264 4.5019 13.1416 5.57112C12.6569 6.64035 12.538 7.83953 12.8034 8.98312C10.6826 8.87673 8.6079 8.32557 6.71391 7.3654C4.81992 6.40524 3.14899 5.05753 1.8096 3.40976C1.12746 4.58408 0.918528 5.97425 1.22536 7.29721C1.53219 8.62017 2.3317 9.77646 3.46112 10.5306C2.61217 10.5058 1.7817 10.2767 1.04 9.86296V9.93056C1.04034 11.1621 1.46667 12.3557 2.24669 13.3088C3.02672 14.2619 4.1124 14.9158 5.3196 15.1597C4.53427 15.3739 3.71028 15.4052 2.91096 15.2512C3.25197 16.311 3.91563 17.2379 4.80918 17.902C5.70272 18.5662 6.78148 18.9346 7.89464 18.9557C6.78864 19.825 5.52209 20.4678 4.16745 20.8472C2.8128 21.2266 1.39665 21.3352 0 21.1667C2.43949 22.7322 5.27792 23.5625 8.17648 23.5587" fill="#1DA1F2"/>
</svg>
