<svg width="25" height="24" viewBox="0 0 25 24" fill="none" xmlns="http://www.w3.org/2000/svg">
<path d="M15.248 19.5C15.248 20.0967 15.011 20.669 14.589 21.091C14.1671 21.5129 13.5948 21.75 12.998 21.75C12.4013 21.75 11.829 21.5129 11.4071 21.091C10.9851 20.669 10.748 20.0967 10.748 19.5C10.748 18.9033 10.9851 18.331 11.4071 17.909C11.829 17.4871 12.4013 17.25 12.998 17.25C13.5948 17.25 14.1671 17.4871 14.589 17.909C15.011 18.331 15.248 18.9033 15.248 19.5ZM15.248 12C15.248 12.5967 15.011 13.169 14.589 13.591C14.1671 14.0129 13.5948 14.25 12.998 14.25C12.4013 14.25 11.829 14.0129 11.4071 13.591C10.9851 13.169 10.748 12.5967 10.748 12C10.748 11.4033 10.9851 10.831 11.4071 10.409C11.829 9.98705 12.4013 9.75 12.998 9.75C13.5948 9.75 14.1671 9.98705 14.589 10.409C15.011 10.831 15.248 11.4033 15.248 12ZM15.248 4.5C15.248 5.09674 15.011 5.66903 14.589 6.09099C14.1671 6.51295 13.5948 6.75 12.998 6.75C12.4013 6.75 11.829 6.51295 11.4071 6.09099C10.9851 5.66903 10.748 5.09674 10.748 4.5C10.748 3.90326 10.9851 3.33097 11.4071 2.90901C11.829 2.48705 12.4013 2.25 12.998 2.25C13.5948 2.25 14.1671 2.48705 14.589 2.90901C15.011 3.33097 15.248 3.90326 15.248 4.5Z" fill="#808080"/>
</svg>
