<svg width="29" height="29" viewBox="0 0 29 29" fill="none" xmlns="http://www.w3.org/2000/svg">
<circle cx="14.5" cy="14.5" r="14.5" fill="#E0F27B"/>
<path d="M16.2444 9.31246C17.1795 8.39585 18.6962 8.39585 19.6313 9.31246L20.602 10.264C21.5371 11.1807 21.5371 12.6674 20.602 13.584L13.3055 20.7364C12.8882 21.1454 12.3226 21.3749 11.7321 21.3749H8.74391C8.46631 21.3749 8.24324 21.1507 8.25016 20.8787L8.32532 17.9231C8.34027 17.3645 8.57345 16.8319 8.9765 16.4368L16.2444 9.31246ZM15.6795 11.2343L9.67498 17.1215C9.45095 17.3411 9.3211 17.6377 9.31281 17.9478L9.25009 20.4063L11.7321 20.4066C12.0242 20.4066 12.305 20.3059 12.5267 20.1238L12.607 20.0518L18.6413 14.1368L15.6795 11.2343ZM18.9328 9.99715C18.3835 9.45867 17.4922 9.45867 16.9429 9.99715L16.3785 10.5495L19.3395 13.452L19.9036 12.8993C20.4224 12.3908 20.4512 11.5832 19.99 11.0415L19.9036 10.9487L18.9328 9.99715Z" fill="#29303A"/>
</svg>
