<svg width="32" height="33" viewBox="0 0 32 33" fill="none" xmlns="http://www.w3.org/2000/svg">
<path d="M3.44736 3.10367C3.27996 3.01995 3.09241 2.98489 2.90607 3.00247C2.71972 3.02006 2.54205 3.08959 2.39326 3.20315C2.24448 3.31672 2.13055 3.46976 2.06445 3.64487C1.99834 3.81997 1.98271 4.01012 2.01932 4.19367L4.8254 13.8937C4.87772 14.0744 4.97999 14.2368 5.12045 14.362C5.26091 14.4873 5.43386 14.5703 5.61942 14.6017L16.9997 16.5077C17.5357 16.6137 17.5357 17.3817 16.9997 17.4877L5.61942 19.3937C5.43386 19.425 5.26091 19.5081 5.12045 19.6333C4.97999 19.7586 4.87772 19.9209 4.8254 20.1017L2.01932 29.8017C1.98271 29.9852 1.99834 30.1754 2.06445 30.3505C2.13055 30.5256 2.24448 30.6786 2.39326 30.7922C2.54205 30.9058 2.71972 30.9753 2.90607 30.9929C3.09241 31.0105 3.27996 30.9754 3.44736 30.8917L29.4481 17.8917C29.6139 17.8085 29.7534 17.6809 29.8509 17.523C29.9484 17.3651 30 17.1832 30 16.9977C30 16.8121 29.9484 16.6302 29.8509 16.4723C29.7534 16.3145 29.6139 16.1868 29.4481 16.1037L3.44736 3.10367Z" fill="#29303A"/>
</svg>
