<svg width="37" height="18" viewBox="0 0 37 18" fill="none" xmlns="http://www.w3.org/2000/svg">
<path d="M8.31274 17.3125C6.82522 17.3122 5.36504 16.9127 4.08452 16.1558C2.80399 15.3988 1.75005 14.3122 1.03263 13.0091C0.315207 11.706 -0.0394026 10.2343 0.0057914 8.74745C0.0509854 7.26062 0.494327 5.81316 1.28957 4.55606C2.08481 3.29896 3.20281 2.27829 4.52694 1.60052C5.85108 0.922743 7.33282 0.612705 8.81761 0.702744C10.3024 0.792784 11.7358 1.2796 12.9684 2.11241C14.2009 2.94523 15.1874 4.09352 15.8249 5.4375H33.2502L36.8127 9L33.2502 12.5625L30.8752 10.1875L28.5002 12.5625L26.1252 10.1875L23.7502 12.5625L21.3752 10.1875L19.0002 12.5625H15.8249C15.1506 13.984 14.0867 15.185 12.7569 16.0258C11.4272 16.8666 9.88606 17.3128 8.31274 17.3125ZM5.93774 11.375C6.56763 11.375 7.17172 11.1248 7.61712 10.6794C8.06252 10.234 8.31274 9.62989 8.31274 9C8.31274 8.37011 8.06252 7.76602 7.61712 7.32062C7.17172 6.87523 6.56763 6.625 5.93774 6.625C5.30785 6.625 4.70376 6.87523 4.25836 7.32062C3.81296 7.76602 3.56274 8.37011 3.56274 9C3.56274 9.62989 3.81296 10.234 4.25836 10.6794C4.70376 11.1248 5.30785 11.375 5.93774 11.375Z" fill="#29303A"/>
</svg>
