<svg width="17" height="15" viewBox="0 0 17 15" fill="none" xmlns="http://www.w3.org/2000/svg">
<path d="M13.4322 12.5549C13.4322 13.264 12.8574 13.8388 12.1483 13.8388H2.13399C1.42493 13.8388 0.850098 13.264 0.850098 12.5549V6.13545C0.850098 5.42639 1.42493 4.85156 2.13399 4.85156H12.1483C12.8574 4.85156 13.4322 5.42639 13.4322 6.13545V12.5549Z" stroke="#0A7F3F" stroke-width="1.2" stroke-miterlimit="10" stroke-linecap="round" stroke-linejoin="round"/>
<path d="M3.41797 2.28389C3.41797 1.57483 3.9928 1 4.70186 1H14.7162C15.4253 1 16.0001 1.57483 16.0001 2.28389V8.70334C16.0001 9.4124 15.4253 9.98723 14.7162 9.98723H13.4323" stroke="#0A7F3F" stroke-width="1.2" stroke-miterlimit="10" stroke-linecap="round" stroke-linejoin="round"/>
<path d="M3.41797 7.41943H13.4323" stroke="#0A7F3F" stroke-width="1.2" stroke-miterlimit="10" stroke-linecap="round" stroke-linejoin="round"/>
<path d="M8.29639 11.271H10.8642" stroke="#0A7F3F" stroke-width="1.2" stroke-miterlimit="10" stroke-linecap="round" stroke-linejoin="round"/>
</svg>
