<svg width="15" height="15" viewBox="0 0 15 15" fill="none" xmlns="http://www.w3.org/2000/svg">
<path d="M14.318 6.81818H8.86346C8.68263 6.81818 8.50921 6.74635 8.38134 6.61848C8.25347 6.49062 8.18164 6.31719 8.18164 6.13636V0.681818C8.18164 0.500989 8.25347 0.327566 8.38134 0.1997C8.50921 0.0718342 8.68263 0 8.86346 0H14.318C14.4988 0 14.6723 0.0718342 14.8001 0.1997C14.928 0.327566 14.9998 0.500989 14.9998 0.681818V6.13636C14.9998 6.31719 14.928 6.49062 14.8001 6.61848C14.6723 6.74635 14.4988 6.81818 14.318 6.81818ZM9.54528 5.45455H13.6362V1.36364H9.54528V5.45455Z" fill="#0A7F3F"/>
<path d="M11.5907 14.9998C10.9165 14.9998 10.2574 14.7999 9.69674 14.4253C9.13612 14.0507 8.69917 13.5183 8.44114 12.8953C8.18312 12.2724 8.11561 11.587 8.24715 10.9257C8.37869 10.2644 8.70337 9.65691 9.18014 9.18014C9.65691 8.70337 10.2644 8.37869 10.9257 8.24715C11.587 8.11561 12.2724 8.18312 12.8953 8.44114C13.5183 8.69917 14.0507 9.13612 14.4253 9.69674C14.7999 10.2574 14.9998 10.9165 14.9998 11.5907C14.9987 12.4945 14.6392 13.361 14.0001 14.0001C13.361 14.6392 12.4945 14.9987 11.5907 14.9998ZM11.5907 9.54528C11.1862 9.54528 10.7907 9.66524 10.4543 9.89C10.118 10.1148 9.8558 10.4342 9.70098 10.808C9.54616 11.1817 9.50566 11.593 9.58458 11.9898C9.66351 12.3866 9.85832 12.751 10.1444 13.0371C10.4304 13.3232 10.7949 13.518 11.1917 13.5969C11.5885 13.6758 11.9997 13.6353 12.3735 13.4805C12.7473 13.3257 13.0667 13.0635 13.2915 12.7271C13.5162 12.3908 13.6362 11.9953 13.6362 11.5907C13.6362 11.0482 13.4207 10.528 13.0371 10.1444C12.6535 9.76078 12.1332 9.54528 11.5907 9.54528Z" fill="#0A7F3F"/>
<path d="M6.13636 8.18164H0.681818C0.500989 8.18164 0.327566 8.25347 0.1997 8.38134C0.0718342 8.50921 0 8.68263 0 8.86346V14.318C0 14.4988 0.0718342 14.6723 0.1997 14.8001C0.327566 14.928 0.500989 14.9998 0.681818 14.9998H6.13636C6.31719 14.9998 6.49062 14.928 6.61848 14.8001C6.74635 14.6723 6.81818 14.4988 6.81818 14.318V8.86346C6.81818 8.68263 6.74635 8.50921 6.61848 8.38134C6.49062 8.25347 6.31719 8.18164 6.13636 8.18164ZM5.45455 13.6362H1.36364V9.54528H5.45455V13.6362Z" fill="#0A7F3F"/>
<path d="M6.13636 6.81818H0.681818C0.500989 6.81818 0.327566 6.74635 0.1997 6.61848C0.0718342 6.49062 0 6.31719 0 6.13636V0.681818C0 0.500989 0.0718342 0.327566 0.1997 0.1997C0.327566 0.0718342 0.500989 0 0.681818 0H6.13636C6.31719 0 6.49062 0.0718342 6.61848 0.1997C6.74635 0.327566 6.81818 0.500989 6.81818 0.681818V6.13636C6.81818 6.31719 6.74635 6.49062 6.61848 6.61848C6.49062 6.74635 6.31719 6.81818 6.13636 6.81818ZM1.36364 5.45455H5.45455V1.36364H1.36364V5.45455Z" fill="#0A7F3F"/>
</svg>
