<svg width="18" height="18" viewBox="0 0 18 18" fill="none" xmlns="http://www.w3.org/2000/svg">
<path d="M8.99985 5.76012L12.0807 7.99872L10.9038 11.6206H7.09555L5.91895 7.99872L8.99985 5.76012Z" stroke="#0A7F3F" stroke-width="1.2" stroke-miterlimit="10" stroke-linecap="round" stroke-linejoin="round"/>
<path d="M8.99985 5.76012L5.91895 7.99872L7.09555 11.6206H10.9038L12.0807 7.99872L8.99985 5.76012Z" stroke="#0A7F3F" stroke-width="1.2" stroke-miterlimit="10" stroke-linecap="round" stroke-linejoin="round"/>
<path d="M8.99985 5.76012L5.91895 7.99872L7.09555 11.6206H10.9038L12.0807 7.99872L8.99985 5.76012Z" stroke="#0A7F3F" stroke-width="1.2" stroke-miterlimit="10" stroke-linecap="round" stroke-linejoin="round"/>
<path d="M8.99985 5.76012L12.0807 7.99872L10.9038 11.6206H7.09555L5.91895 7.99872L8.99985 5.76012Z" stroke="#0A7F3F" stroke-width="1.2" stroke-miterlimit="10" stroke-linecap="round" stroke-linejoin="round"/>
<path d="M9 3.85629V5.76025" stroke="#0A7F3F" stroke-width="1.2" stroke-miterlimit="10" stroke-linecap="round" stroke-linejoin="round"/>
<path d="M12.0231 13.1611L10.9038 11.6205" stroke="#0A7F3F" stroke-width="1.2" stroke-miterlimit="10" stroke-linecap="round" stroke-linejoin="round"/>
<path d="M13.8918 7.41021L12.0806 7.99854" stroke="#0A7F3F" stroke-width="1.2" stroke-miterlimit="10" stroke-linecap="round" stroke-linejoin="round"/>
<path d="M4.10742 7.41021L5.91903 7.99854" stroke="#0A7F3F" stroke-width="1.2" stroke-miterlimit="10" stroke-linecap="round" stroke-linejoin="round"/>
<path d="M5.97607 13.1611L7.09538 11.6205" stroke="#0A7F3F" stroke-width="1.2" stroke-miterlimit="10" stroke-linecap="round" stroke-linejoin="round"/>
<path d="M8.99976 0.999999C13.4149 0.999999 16.9995 4.58458 16.9995 8.99976C16.9995 13.415 13.4149 16.9995 8.99976 16.9995C4.58454 16.9995 1 13.415 1 8.99976C1 4.58458 4.58454 0.999999 8.99976 0.999999Z" stroke="#0A7F3F" stroke-width="1.2" stroke-miterlimit="10" stroke-linecap="round" stroke-linejoin="round"/>
<path d="M7.15335 16.7852C5.04872 16.2872 3.26417 14.9569 2.16748 13.1612H5.97604L7.15335 16.7852Z" stroke="#0A7F3F" stroke-width="1.2" stroke-miterlimit="10" stroke-linecap="round" stroke-linejoin="round"/>
<path d="M10.8462 16.7852C12.9508 16.2872 14.7354 14.9569 15.8321 13.1612H12.0235L10.8462 16.7852Z" stroke="#0A7F3F" stroke-width="1.2" stroke-miterlimit="10" stroke-linecap="round" stroke-linejoin="round"/>
<path d="M4.10725 7.41427L1.02635 9.65283C1.009 9.43753 1 9.21953 1 8.99986C1 7.01092 1.72732 5.19064 2.93027 3.79069L4.10725 7.41427Z" stroke="#0A7F3F" stroke-width="1.2" stroke-miterlimit="10" stroke-linecap="round" stroke-linejoin="round"/>
<path d="M13.8926 7.41427L16.9735 9.65283C16.9908 9.43753 16.9998 9.21953 16.9998 8.99986C16.9998 7.01092 16.2725 5.19064 15.0696 3.79069L13.8926 7.41427Z" stroke="#0A7F3F" stroke-width="1.2" stroke-miterlimit="10" stroke-linecap="round" stroke-linejoin="round"/>
<path d="M5.91602 1.61739C6.86532 1.22006 7.90728 1.0004 8.99995 1.0004C10.0916 1.0004 11.1322 1.2194 12.0808 1.61607L8.99725 3.85596L5.91602 1.61739Z" stroke="#0A7F3F" stroke-width="1.2" stroke-miterlimit="10" stroke-linecap="round" stroke-linejoin="round"/>
</svg>
