<svg width="17" height="17" viewBox="0 0 17 17" fill="none" xmlns="http://www.w3.org/2000/svg">
<path d="M10.1209 11.4305C9.91145 11.4305 9.71054 11.5137 9.56241 11.6618C9.41428 11.81 9.33106 12.0109 9.33106 12.2204V14.1447C9.3308 14.4405 9.21322 14.724 9.00411 14.9332C8.795 15.1424 8.51146 15.26 8.21569 15.2604H2.69512C2.39936 15.26 2.11581 15.1424 1.9067 14.9332C1.6976 14.724 1.58001 14.4405 1.57975 14.1447V2.69545C1.58001 2.39969 1.6976 2.11611 1.9067 1.90694C2.11581 1.69777 2.39936 1.5801 2.69512 1.57975H8.21569C8.51146 1.5801 8.795 1.69777 9.00411 1.90694C9.21322 2.11611 9.3308 2.39969 9.33106 2.69545V4.3588C9.33106 4.56829 9.41428 4.76919 9.56241 4.91732C9.71054 5.06545 9.91145 5.14867 10.1209 5.14867C10.3304 5.14867 10.5313 5.06545 10.6795 4.91732C10.8276 4.76919 10.9108 4.56829 10.9108 4.3588V2.69545C10.9099 1.9809 10.6257 1.29585 10.1205 0.790557C9.61526 0.28526 8.93025 0.000958018 8.21569 0H2.69512C1.98057 0.000958018 1.29556 0.28526 0.790325 0.790557C0.285089 1.29585 0.000870765 1.9809 0 2.69545V14.1447C0.000870765 14.8593 0.285089 15.5443 0.790325 16.0496C1.29556 16.5549 1.98057 16.8392 2.69512 16.8401H8.21569C8.93025 16.8392 9.61526 16.5549 10.1205 16.0496C10.6257 15.5443 10.9099 14.8593 10.9108 14.1447V12.2204C10.9108 12.0109 10.8276 11.81 10.6795 11.6618C10.5313 11.5137 10.3304 11.4305 10.1209 11.4305Z" fill="#0B8140"/>
<path d="M16.6071 7.84496L13.7961 5.03596C13.6499 4.88978 13.4522 4.80676 13.2454 4.80473C13.0386 4.8027 12.8393 4.88182 12.6903 5.0251C12.371 5.33217 12.3786 5.85217 12.6919 6.16549L14.1555 7.63005H7.3099C7.10041 7.63005 6.8995 7.71327 6.75137 7.8614C6.60324 8.00953 6.52002 8.21043 6.52002 8.41992C6.52002 8.62941 6.60324 8.83032 6.75137 8.97845C6.8995 9.12658 7.10041 9.2098 7.3099 9.2098H14.1555L12.6778 10.6875C12.5296 10.8356 12.4463 11.0366 12.4463 11.2461C12.4463 11.4556 12.5295 11.6565 12.6776 11.8047C12.8257 11.9529 13.0266 12.0361 13.2362 12.0362C13.4457 12.0362 13.6466 11.953 13.7948 11.8049L16.6071 8.9939C16.6826 8.91851 16.7425 8.82897 16.7834 8.73039C16.8243 8.63182 16.8454 8.52615 16.8454 8.41943C16.8454 8.31271 16.8243 8.20704 16.7834 8.10846C16.7425 8.00989 16.6826 7.92034 16.6071 7.84496Z" fill="#0B8140"/>
</svg>
