<svg width="17" height="19" viewBox="0 0 17 19" fill="none" xmlns="http://www.w3.org/2000/svg">
<path d="M4.91826 15.3438C4.91826 16.8362 6.13286 18.05 7.62451 18.05C9.1163 18.05 10.3308 16.8362 10.3308 15.3438C10.3308 15.0229 10.0704 14.7625 9.74952 14.7625C9.42865 14.7625 9.16827 15.0229 9.16827 15.3438C9.16827 16.1952 8.47524 16.8875 7.62451 16.8875C6.77379 16.8875 6.08076 16.1952 6.08076 15.3438C6.08076 15.0229 5.82038 14.7625 5.49951 14.7625C5.17865 14.7625 4.91826 15.0229 4.91826 15.3438Z" fill="#0B8140" stroke="#0B8140" stroke-width="0.1"/>
<path d="M1.70411 14.5405L1.7041 14.5404C1.70252 14.5417 1.7009 14.543 1.69923 14.5444C1.69257 14.5498 1.68511 14.5558 1.67675 14.5619C1.66478 14.5789 1.654 14.6033 1.654 14.6355C1.654 14.7041 1.71242 14.7625 1.78105 14.7625H13.4686C13.5373 14.7625 13.5957 14.7041 13.5957 14.6355C13.5957 14.6022 13.5847 14.5783 13.5723 14.5617C13.5652 14.5564 13.5586 14.551 13.5524 14.5459C13.5501 14.544 13.5478 14.5422 13.5456 14.5404L13.5446 14.5396C12.2266 13.4181 11.4707 11.7856 11.4707 10.0595V9.28756C11.4707 8.96669 11.7311 8.70631 12.052 8.70631C12.3728 8.70631 12.6332 8.96669 12.6332 9.28756V10.0595C12.6332 11.4232 13.2217 12.7146 14.2506 13.6132C14.2699 13.6262 14.2891 13.6403 14.3074 13.6563C14.594 13.901 14.7582 14.2582 14.7582 14.6355C14.7582 15.3466 14.1798 15.925 13.4686 15.925H1.78105C1.06991 15.925 0.491504 15.3466 0.491504 14.6355C0.491504 14.2582 0.655763 13.901 0.942193 13.6556M1.70411 14.5405L0.998765 13.6131C0.999643 13.6123 1.00052 13.6116 1.0014 13.6108M1.70411 14.5405L1.70515 14.5396C3.02235 13.4188 3.77901 11.7856 3.77901 10.0595V8.08329C3.77901 5.96257 5.50484 4.2375 7.6248 4.2375C7.6365 4.2375 7.64806 4.2374 7.65948 4.2373C7.70609 4.23688 7.75029 4.23649 7.79159 4.24318M1.70411 14.5405L1.67275 14.5015M0.942193 13.6556C0.942275 13.6555 0.942356 13.6554 0.942437 13.6554L0.974961 13.6933L0.942016 13.6557C0.942077 13.6557 0.942133 13.6556 0.942193 13.6556ZM0.942193 13.6556C0.961003 13.6391 0.980928 13.6242 1.0014 13.6108M1.0014 13.6108C2.02873 12.713 2.61651 11.4223 2.61651 10.0595V8.08329C2.61651 5.3216 4.86377 3.075 7.6248 3.075C7.73818 3.075 7.86451 3.077 7.98243 3.09697L7.97408 3.14627M1.0014 13.6108L7.97408 3.14627M7.97408 3.14627L7.98228 3.09695C8.29916 3.14959 8.51316 3.44956 8.46036 3.76578M7.97408 3.14627C8.2637 3.19439 8.45929 3.46857 8.41104 3.75755M8.46036 3.76578L8.41104 3.75755M8.46036 3.76578C8.46036 3.76577 8.46036 3.76577 8.46036 3.76576L8.41104 3.75755M8.46036 3.76578C8.40767 4.08212 8.1027 4.29592 7.79159 4.24318M8.41104 3.75755C8.36292 4.04652 8.08381 4.2421 7.79977 4.19386M7.79159 4.24318C7.79164 4.24319 7.79169 4.2432 7.79175 4.24321L7.79977 4.19386M7.79159 4.24318C7.79152 4.24317 7.79146 4.24316 7.79139 4.24315L7.79977 4.19386M7.79977 4.19386C7.75379 4.18639 7.70414 4.18685 7.65712 4.1873C7.64618 4.1874 7.63538 4.1875 7.6248 4.1875C5.47723 4.1875 3.72901 5.93495 3.72901 8.08329V10.0595C3.72901 11.7709 2.97882 13.3902 1.67275 14.5015M1.67275 14.5015C1.67089 14.503 1.66907 14.5045 1.66728 14.5059C1.65882 14.5128 1.65091 14.5192 1.64149 14.5256C1.62242 14.5497 1.604 14.5866 1.604 14.6355C1.604 14.7317 1.68481 14.8125 1.78105 14.8125H13.4686C13.5649 14.8125 13.6457 14.7317 13.6457 14.6355C13.6457 14.5858 13.6273 14.5497 13.6075 14.5256L1.67275 14.5015Z" fill="#0B8140" stroke="#0B8140" stroke-width="0.1"/>
<path d="M8.9915 4.54171C8.9915 6.52222 10.6027 8.1333 12.5832 8.1333C14.5637 8.1333 16.1748 6.52222 16.1748 4.54171C16.1748 2.56121 14.5637 0.95 12.5832 0.95C10.6027 0.95 8.9915 2.56121 8.9915 4.54171ZM10.154 4.54171C10.154 3.20216 11.2437 2.1125 12.5832 2.1125C13.9226 2.1125 15.0123 3.20216 15.0123 4.54171C15.0123 5.88113 13.9226 6.9708 12.5832 6.9708C11.2437 6.9708 10.154 5.88113 10.154 4.54171Z" fill="#0B8140" stroke="#0B8140" stroke-width="0.1"/>
</svg>
