<svg width="13" height="20" viewBox="0 0 13 20" fill="none" xmlns="http://www.w3.org/2000/svg">
<path d="M0.500003 16.502C0.223502 16.502 0 16.279 0 16.002C0 14.347 1.34551 13.002 3.00002 13.002C3.27652 13.002 3.50002 13.225 3.50002 13.502C3.50002 13.779 3.27652 14.002 3.00002 14.002C1.89701 14.002 1.00001 14.899 1.00001 16.002C1.00001 16.279 0.776505 16.502 0.500003 16.502Z" fill="#0A7F3F"/>
<path d="M4.49904 14.002H2.99903C2.72253 14.002 2.49902 13.779 2.49902 13.502C2.49902 13.225 2.72253 13.002 2.99903 13.002H4.49904C4.77554 13.002 4.99904 13.225 4.99904 13.502C4.99904 13.779 4.77554 14.002 4.49904 14.002Z" fill="#0A7F3F"/>
<path d="M0.500004 18.5025C0.223502 18.5025 0 18.279 0 18.0025V16.002C0 15.725 0.223502 15.502 0.500004 15.502C0.776505 15.502 1.00001 15.725 1.00001 16.002V18.0025C1.00001 18.279 0.776505 18.5025 0.500004 18.5025Z" fill="#0A7F3F"/>
<path d="M1.00001 19.0031C0.448503 19.0031 0 18.5551 0 18.0031C0 17.7376 0.209001 17.5461 0.474003 17.5316C0.754505 17.5211 0.970007 17.7396 1.00001 18.0026C1.27601 18.0026 1.50001 18.2266 1.50001 18.5026C1.50001 18.7796 1.27651 19.0031 1.00001 19.0031Z" fill="#0A7F3F"/>
<path d="M12.5005 16.502C12.224 16.502 12.0005 16.279 12.0005 16.002C12.0005 14.899 11.1035 14.002 10.0005 14.002C9.72399 14.002 9.50049 13.779 9.50049 13.502C9.50049 13.225 9.72399 13.002 10.0005 13.002C11.655 13.002 13.0005 14.347 13.0005 16.002C13.0005 16.279 12.777 16.502 12.5005 16.502Z" fill="#0A7F3F"/>
<path d="M9.99953 14.002H8.49952C8.22301 14.002 7.99951 13.779 7.99951 13.502C7.99951 13.225 8.22301 13.002 8.49952 13.002H9.99953C10.276 13.002 10.4995 13.225 10.4995 13.502C10.4995 13.779 10.276 14.002 9.99953 14.002Z" fill="#0A7F3F"/>
<path d="M12.4995 18.5025C12.223 18.5025 11.9995 18.279 11.9995 18.0025V16.002C11.9995 15.725 12.223 15.502 12.4995 15.502C12.776 15.502 12.9995 15.725 12.9995 16.002V18.0025C12.9995 18.279 12.776 18.5025 12.4995 18.5025Z" fill="#0A7F3F"/>
<path d="M12 19.0029C11.7235 19.0029 11.5 18.7794 11.5 18.5029C11.5 18.2264 11.7235 18.0029 12 18.0029C12 17.7264 12.2235 17.5029 12.5 17.5029C12.7765 17.5029 13 17.7264 13 18.0029C13 18.5549 12.552 19.0029 12 19.0029Z" fill="#0A7F3F"/>
<path d="M11.9996 19.0029H0.999515C0.723013 19.0029 0.499512 18.7794 0.499512 18.5029C0.499512 18.2264 0.723013 18.0029 0.999515 18.0029H11.9996C12.2761 18.0029 12.4996 18.2264 12.4996 18.5029C12.4996 18.7794 12.2761 19.0029 11.9996 19.0029Z" fill="#0A7F3F"/>
<path d="M4.49952 14.0022C4.22301 14.0022 3.99951 13.7792 3.99951 13.5022V11.5337C3.99951 11.2572 4.22301 11.0337 4.49952 11.0337C4.77602 11.0337 4.99952 11.2572 4.99952 11.5337V13.5022C4.99952 13.7792 4.77602 14.0022 4.49952 14.0022Z" fill="#0A7F3F"/>
<path d="M8.49952 14.0022C8.22301 14.0022 7.99951 13.7792 7.99951 13.5022V11.5337C7.99951 11.2572 8.22301 11.0337 8.49952 11.0337C8.77602 11.0337 8.99952 11.2572 8.99952 11.5337V13.5022C8.99952 13.7792 8.77602 14.0022 8.49952 14.0022Z" fill="#0A7F3F"/>
<path d="M6.49807 12.503C3.74105 12.503 1.49854 10.2604 1.49854 7.50342C1.49854 7.22692 1.72204 7.00342 1.99854 7.00342C2.27504 7.00342 2.49854 7.22692 2.49854 7.50342C2.49854 9.70894 4.29255 11.5029 6.49807 11.5029C8.70409 11.5029 10.4986 9.70894 10.4986 7.50342C10.4986 7.22692 10.7221 7.00342 10.9986 7.00342C11.2751 7.00342 11.4986 7.22692 11.4986 7.50342C11.4986 10.2604 9.25559 12.503 6.49807 12.503Z" fill="#0A7F3F"/>
<path d="M1.99854 8.02752C1.72204 8.02752 1.49854 7.80402 1.49854 7.52751V4.50049C1.49854 4.22349 1.72204 4.00049 1.99854 4.00049C2.27504 4.00049 2.49854 4.22349 2.49854 4.50049V7.52751C2.49854 7.80402 2.27504 8.02752 1.99854 8.02752Z" fill="#0A7F3F"/>
<path d="M10.9995 8.00302C10.723 8.00302 10.4995 7.77952 10.4995 7.50301V4.50049C10.4995 4.22349 10.723 4.00049 10.9995 4.00049C11.276 4.00049 11.4995 4.22349 11.4995 4.50049V7.50301C11.4995 7.77952 11.276 8.00302 10.9995 8.00302Z" fill="#0A7F3F"/>
<path d="M10.9995 5.00003C10.723 5.00003 10.4995 4.77653 10.4995 4.50003C10.4995 3.67252 9.82652 2.99952 8.99952 2.99952C8.72301 2.99952 8.49951 2.77552 8.49951 2.49952C8.49951 2.22351 8.72301 1.99951 8.99952 1.99951C10.378 1.99951 11.4995 3.12152 11.4995 4.50003C11.4995 4.77653 11.276 5.00003 10.9995 5.00003Z" fill="#0A7F3F"/>
<path d="M8.99952 3.00002C8.72301 3.00002 8.49951 2.77602 8.49951 2.50002V0.500004C8.49951 0.224002 8.72301 0 8.99952 0C9.27602 0 9.49952 0.224002 9.49952 0.500004V2.50002C9.49952 2.77602 9.27602 3.00002 8.99952 3.00002Z" fill="#0A7F3F"/>
<path d="M8.99905 1.00001H5.99903C5.72253 1.00001 5.49902 0.776005 5.49902 0.500004C5.49902 0.224002 5.72253 0 5.99903 0H8.99905C9.27555 0 9.49905 0.224002 9.49905 0.500004C9.49905 0.776005 9.27555 1.00001 8.99905 1.00001Z" fill="#0A7F3F"/>
<path d="M1.99854 5.00053C1.72204 5.00053 1.49854 4.77703 1.49854 4.50053C1.49854 2.01901 3.51705 0 5.99857 0C6.27507 0 6.49857 0.224002 6.49857 0.500003C6.49857 0.776005 6.27507 1.00001 5.99857 1.00001C4.06905 1.00001 2.49854 2.57052 2.49854 4.50053C2.49854 4.77703 2.27504 5.00053 1.99854 5.00053Z" fill="#0A7F3F"/>
<path d="M10.9988 6.51376C10.9028 6.51376 10.8048 6.48576 10.7188 6.42876L9.21875 5.41575C8.99025 5.26075 8.92974 4.94925 9.08375 4.72075C9.23775 4.49225 9.54875 4.43275 9.77825 4.58575L11.2783 5.59825C11.5078 5.75375 11.5673 6.06476 11.4138 6.29326C11.3178 6.43726 11.1593 6.51376 10.9988 6.51376Z" fill="#0A7F3F"/>
<path d="M6.74988 6.00106C4.94387 6.00106 3.40636 5.49706 3.34235 5.47556C3.08085 5.38755 2.93885 5.10555 3.02535 4.84355C3.11235 4.58205 3.39536 4.43955 3.65736 4.52555C3.67186 4.53105 5.11137 5.00005 6.75038 5.00005C8.33989 5.00005 9.2704 4.55605 9.2804 4.55155C9.5274 4.43255 9.8274 4.53305 9.9484 4.78005C10.0704 5.02705 9.9699 5.32505 9.7244 5.44806C9.6774 5.47206 8.59289 6.00106 6.74988 6.00106Z" fill="#0A7F3F"/>
<path d="M1.9991 6.51379C1.8386 6.51379 1.6806 6.43729 1.5841 6.29429C1.4296 6.06579 1.4901 5.75479 1.7191 5.59979L3.21911 4.58678C3.44811 4.43278 3.75861 4.49278 3.91361 4.72228C4.06811 4.95078 4.00761 5.26129 3.77861 5.41679L2.2786 6.42929C2.1926 6.4868 2.0951 6.51379 1.9991 6.51379Z" fill="#0A7F3F"/>
<path d="M2.49952 19.0023C2.22301 19.0023 1.99951 18.7788 1.99951 18.5023V13.5522C1.99951 13.2757 2.22301 13.0522 2.49952 13.0522C2.77602 13.0522 2.99952 13.2757 2.99952 13.5522V18.5023C2.99952 18.7788 2.77602 19.0023 2.49952 19.0023Z" fill="#0A7F3F"/>
<path d="M10.499 19.0023C10.222 19.0023 9.99902 18.7788 9.99902 18.5023V13.5522C9.99902 13.2757 10.222 13.0522 10.499 13.0522C10.7755 13.0522 10.999 13.2757 10.999 13.5522V18.5023C10.999 18.7788 10.7755 19.0023 10.499 19.0023Z" fill="#0A7F3F"/>
<path d="M6.49953 15.5025C5.12102 15.5025 3.99951 14.604 3.99951 13.5C3.99951 13.223 4.22301 13 4.49952 13C4.77602 13 4.99952 13.223 4.99952 13.5C4.99952 14.0435 5.68652 14.5025 6.49953 14.5025C7.31253 14.5025 7.99954 14.0435 7.99954 13.5C7.99954 13.223 8.22304 13 8.49954 13C8.77604 13 8.99955 13.223 8.99955 13.5C8.99955 14.604 7.87804 15.5025 6.49953 15.5025Z" fill="#0A7F3F"/>
</svg>
