<svg width="22" height="18" viewBox="0 0 22 18" fill="none" xmlns="http://www.w3.org/2000/svg">
<path d="M7.5234 0.9C5.29177 0.9 3.47959 2.71218 3.47959 4.94381C3.47959 7.17544 5.29177 8.98762 7.5234 8.98762C9.75503 8.98762 11.5672 7.17544 11.5672 4.94381C11.5672 2.71218 9.75503 0.9 7.5234 0.9ZM7.5234 1.9764C9.16138 1.9764 10.4908 3.30583 10.4908 4.94381C10.4908 6.58179 9.16138 7.91122 7.5234 7.91122C5.88542 7.91122 4.55599 6.58179 4.55599 4.94381C4.55599 3.30583 5.88542 1.9764 7.5234 1.9764Z" fill="#0B8140" stroke="#0B8140" stroke-width="0.2"/>
<path d="M16.3411 4.41758C14.5927 4.41758 13.1729 5.83733 13.1729 7.58575C13.1729 9.33418 14.5927 10.7539 16.3411 10.7539C18.0895 10.7539 19.5093 9.33418 19.5093 7.58575C19.5093 5.83733 18.0895 4.41758 16.3411 4.41758ZM16.3411 5.4942C17.4956 5.4942 18.4327 6.43124 18.4327 7.58575C18.4327 8.74026 17.4956 9.67731 16.3411 9.67731C15.1866 9.67731 14.2496 8.74026 14.2496 7.58575C14.2496 6.43124 15.1866 5.4942 16.3411 5.4942Z" fill="#0B8140" stroke="#0B8140" stroke-width="0.2"/>
<path d="M14.18 16.7903C14.1907 16.7575 14.2003 16.7241 14.2086 16.6903H14.1054C14.0963 16.7242 14.086 16.7575 14.0744 16.7903H14.18ZM13.7273 13.0682C13.716 13.0433 13.7044 13.0185 13.6927 12.9938L13.6023 13.0366L13.6631 13.1161C13.6843 13.0998 13.7057 13.0839 13.7273 13.0682ZM2.31493 17.7669H2.3283H2.34192H2.3558H2.36994H2.38434H2.39898H2.41389H2.42904H2.44444H2.4601H2.476H2.49215H2.50855H2.52519H2.54208H2.55922H2.57659H2.59421H2.61207H2.63017H2.6485H2.66708H2.68589H2.70493H2.72421H2.74373H2.76347H2.78345H2.80366H2.8241H2.84476H2.86566H2.88678H2.90812H2.92969H2.95148H2.97349H2.99573H3.01818H3.04086H3.06375H3.08686H3.11018H3.13372H3.15747H3.18144H3.20561H3.23H3.2546H3.2794H3.30441H3.32963H3.35506H3.38069H3.40652H3.43255H3.45879H3.48522H3.51186H3.53869H3.56572H3.59295H3.62037H3.64798H3.67579H3.70379H3.73198H3.76036H3.78893H3.81769H3.84663H3.87576H3.90508H3.93457H3.96425H3.99412H4.02416H4.05438H4.08478H4.11536H4.14611H4.17704H4.20814H4.23942H4.27086H4.30248H4.33427H4.36623H4.39836H4.43065H4.46311H4.49573H4.52852H4.56147H4.59458H4.62786H4.66129H4.69488H4.72863H4.76253H4.79659H4.83081H4.86518H4.8997H4.93437H4.96919H5.00417H5.03929H5.07455H5.10997H5.14553H5.18123H5.21708H5.25306H5.28919H5.32546H5.36187H5.39841H5.43509H5.47191H5.50887H5.54595H5.58317H5.62052H5.658H5.69561H5.73335H5.77122H5.80921H5.84733H5.88557H5.92394H5.96243H6.00103H6.03976H6.07861H6.11758H6.15666H6.19586H6.23518H6.27461H6.31415H6.3538H6.39356H6.43344H6.47342H6.51351H6.55371H6.59401H6.63442H6.67493H6.71554H6.75626H6.79707H6.83799H6.879H6.92011H6.96132H7.00262H7.04401H7.0855H7.12708H7.16876H7.21052H7.25237H7.29431H7.33633H7.37844H7.42064H7.46292H7.50529H7.54773H7.59026H7.63286H7.67554H7.71831H7.76114H7.80406H7.84704H7.89011H7.93324H7.97644H8.01972H8.06306H8.10648H8.14996H8.1935H8.23711H8.28079H8.32452H8.36832H8.41219H8.45611H8.50009H8.54412H8.58822H8.63237H8.67657H8.72083H8.76514H8.8095H8.85392H8.89838H8.94289H8.98745H9.03205H9.0767H9.1214H9.16613H9.21091H9.25573H9.3006H9.3455H9.39043H9.43541H9.48042H9.52547H9.57055H9.61566H9.6608H9.70598H9.75118H9.79642H9.84168H9.88697H9.93228H9.97762H10.023H10.0684H10.1138H10.1592H10.2046H10.2501H10.2956H10.3411H10.3866H10.4321H10.4777H10.5232H10.5688H10.6144H10.6599H10.7055H10.7511H10.7967H10.8423H10.8879H10.9336H10.9792H11.0248H11.0704H11.116H11.1616H11.2072H11.2528H11.2984H11.344H11.3896H11.4352H11.4808H11.5263H11.5719H11.6174H11.6629H11.7084H11.7539H11.7994H11.8448H11.8902H11.9356H11.981H12.0264H12.0717H12.1171H12.1624H12.2076H12.2529H12.2981H12.3433H12.3884H12.4335H12.4786H12.5237H12.5687H12.6137H12.6586H12.7035H12.7484H12.7932H12.838H12.8828H12.9275H12.9721H13.0168H13.0613H13.1058H13.1503H13.1947H13.2391H13.2834H13.3277H13.3719H13.4161H13.4602H13.5043H13.5482H13.5922H13.6361H13.6799H13.7236H13.7673H13.8109H13.8545H13.898H13.9414H13.9848H14.0281H14.0713H14.1145H14.1575H14.2005H14.2435H14.2863H14.3291H14.3718H14.4144H14.457H14.4994H14.5418H14.5841H14.6263H14.6685H14.7105H14.7525H14.7944H14.8361H14.8778H14.9194H14.9609H15.0024H15.0437H15.0849H15.126H15.1671H15.208H15.2489H15.2896H15.3302H15.3708H15.4112H15.4515H15.4918H15.5319H15.5719H15.6118H15.6516H15.6912H15.7308H15.7703H15.8096H15.8488H15.888H15.9269H15.9658H16.0046H16.0432H16.0817H16.1201H16.1584H16.1966H16.2346H16.2725H16.3102H16.3479H16.3854H16.4228H16.46H16.4971H16.5341H16.571H16.6077H16.6443H16.6807H16.717H16.7532H16.7892H16.8251H16.8608H16.8964H16.9319H16.9672H17.0023H17.0373H17.0722H17.1069H17.1414H17.1759H17.2101H17.2442H17.2781H17.3119H17.3456H17.379H17.4123H17.4455H17.4785H17.5113H17.544H17.5765H17.6088H17.641H17.673H17.7048H17.7365H17.7679H17.7993H17.8304H17.8614H17.8922H17.9228H17.9532H17.9835H18.0136H18.0435H18.0732H18.1028H18.1321H18.1613H18.1903H18.2191H18.2477H18.2761H18.3044H18.3324H18.3603H18.3879H18.4154H18.4427H18.4697H18.4966H18.5233H18.5498H18.5761H18.6021H18.628H18.6537H18.6792H18.7044H18.7295H18.7544H18.779H18.8034H18.8277H18.8517H18.8755H18.8991H18.9225H18.9456H18.9686H18.9913H19.0138H19.0361H19.0581H19.08H19.1016H19.123H19.1442H19.1651H19.1858H19.2063H19.2266H19.2466H19.2664H19.286H19.3053H19.3244H19.3433H19.3619H19.3803H19.3985H19.4164H19.4341H19.4515H19.4687H19.4857H19.5024H19.5188H19.535H19.551H19.5667H19.5822H19.5974H19.6123H19.6271H19.6415H19.6557H19.6696H19.6833H19.6968H19.7099H19.7228H19.7355H19.7479H19.76H19.7719H19.7834H19.7948H19.8058H19.8166H19.8271H19.8374H19.8474C20.2227 17.7669 20.5826 17.6179 20.8477 17.3524C21.1133 17.0873 21.2623 16.7274 21.2623 16.352V15.4754C21.2623 13.2413 19.4516 11.4306 17.2175 11.4306H15.4643C14.6204 11.4306 13.8366 11.6891 13.1884 12.1314C12.1386 10.6469 10.4082 9.67734 8.45128 9.67734H6.69804C3.49574 9.67734 0.9 12.2731 0.9 15.4754V16.352C0.9 17.1335 1.53342 17.7669 2.31493 17.7669ZM13.1727 15.4754V16.352C13.1727 16.5387 13.0211 16.6903 12.8344 16.6903H2.31493C2.12821 16.6903 1.97662 16.5387 1.97662 16.352V15.4754C1.97662 12.8679 4.09053 10.754 6.69804 10.754H8.45128C11.0588 10.754 13.1727 12.8679 13.1727 15.4754Z" fill="#0B8140" stroke="#0B8140" stroke-width="0.2"/>
</svg>
