<svg width="14" height="16" viewBox="0 0 14 16" fill="none" xmlns="http://www.w3.org/2000/svg">
<path fill-rule="evenodd" clip-rule="evenodd" d="M6.51138 2.97656C5.17631 2.97656 4.09277 4.0601 4.09277 5.39517C4.09277 6.73024 5.17631 7.81377 6.51138 7.81377C7.84645 7.81377 8.92998 6.73024 8.92998 5.39517C8.92998 4.0601 7.84645 2.97656 6.51138 2.97656ZM6.51138 4.09284C7.23026 4.09284 7.8137 4.67628 7.8137 5.39517C7.8137 6.11405 7.23026 6.69749 6.51138 6.69749C5.79249 6.69749 5.20905 6.11405 5.20905 5.39517C5.20905 4.67628 5.79249 4.09284 6.51138 4.09284Z" fill="#0A7F3F"/>
<path fill-rule="evenodd" clip-rule="evenodd" d="M6.51107 0C3.53358 0 1.11572 2.41786 1.11572 5.39535C1.11572 6.83312 1.92093 8.47256 2.91814 9.91033C4.34623 11.971 6.13228 13.6193 6.13228 13.6193C6.34661 13.8166 6.67554 13.8166 6.88986 13.6193C6.88986 13.6193 8.67591 11.971 10.104 9.91033C11.1012 8.47256 11.9064 6.83312 11.9064 5.39535C11.9064 2.41786 9.48856 0 6.51107 0ZM6.51107 1.11628C8.87312 1.11628 10.7901 3.0333 10.7901 5.39535C10.7901 6.63665 10.0474 8.03349 9.18717 9.27479C8.22344 10.6649 7.08856 11.8571 6.51107 12.4324C5.93358 11.8571 4.7987 10.6649 3.83498 9.27479C2.9747 8.03349 2.232 6.63665 2.232 5.39535C2.232 3.0333 4.14903 1.11628 6.51107 1.11628Z" fill="#0A7F3F"/>
<path fill-rule="evenodd" clip-rule="evenodd" d="M10.4566 11.4897C10.9313 11.6936 11.3206 11.931 11.5862 12.2026C11.7805 12.3998 11.907 12.6089 11.907 12.8374C11.907 13.2489 11.5468 13.5875 11.0296 13.8956C10.0115 14.5036 8.36465 14.8839 6.51163 14.8839C4.65861 14.8839 3.01172 14.5036 1.99367 13.8956C1.47647 13.5875 1.11628 13.2489 1.11628 12.8374C1.11628 12.6089 1.24279 12.3998 1.43702 12.2026C1.7027 11.931 2.09191 11.6936 2.5667 11.4897C2.84949 11.3684 2.98121 11.0402 2.85991 10.7574C2.7386 10.4739 2.40967 10.3429 2.12688 10.4642C0.764279 11.0476 0 11.9377 0 12.8374C0 13.5764 0.492651 14.3005 1.4214 14.8549C2.57042 15.5403 4.42121 16.0002 6.51163 16.0002C8.60205 16.0002 10.4528 15.5403 11.6019 14.8549C12.5306 14.3005 13.0233 13.5764 13.0233 12.8374C13.0233 11.9377 12.259 11.0476 10.8964 10.4642C10.6136 10.3429 10.2847 10.4739 10.1633 10.7574C10.042 11.0402 10.1738 11.3684 10.4566 11.4897Z" fill="#0A7F3F"/>
</svg>
