<svg width="284" height="68" viewBox="0 0 284 68" fill="none" xmlns="http://www.w3.org/2000/svg">
<path d="M13.0943 17.2696C14.7961 17.2463 16.4072 17.5795 17.9274 18.2695C19.459 18.9478 20.7694 19.8775 21.8585 21.0586C22.9477 22.2398 23.8043 23.6606 24.4282 25.3212C25.0522 26.9702 25.3529 28.7185 25.3302 30.5662C25.3642 33.0571 24.848 35.32 23.7816 37.3548C22.7151 39.3779 21.2402 40.9625 19.3569 42.1086C17.485 43.2429 15.4088 43.7926 13.1284 43.7575C11.472 43.7926 9.88364 43.471 8.36338 42.7927C6.85446 42.1027 5.54976 41.1672 4.44927 39.986C3.36012 38.8049 2.49788 37.3899 1.86255 35.741C1.22722 34.0921 0.926568 32.3671 0.960604 30.5662C0.937913 28.7185 1.23289 26.9702 1.84553 25.3212C2.46952 23.6606 3.32042 22.2398 4.39821 21.0586C5.48736 19.8775 6.78639 18.9478 8.29531 18.2695C9.80422 17.5795 11.4039 17.2463 13.0943 17.2696ZM13.1284 39.8983C15.6357 39.8983 17.6495 39.0505 19.1697 37.3548C20.69 35.6474 21.4501 33.3845 21.4501 30.5662C21.4501 27.7361 20.6786 25.4499 19.1357 23.7074C17.6041 21.9533 15.5903 21.0762 13.0943 21.0762C10.6665 21.0762 8.68104 21.965 7.13809 23.7425C5.59514 25.5084 4.82366 27.7829 4.82366 30.5662C4.82366 33.3027 5.60081 35.5422 7.15511 37.2846C8.72075 39.0271 10.7118 39.8983 13.1284 39.8983Z" fill="#090909"/>
<path d="M49.3084 17.7784V43.2839H45.8197L33.2095 24.0583V43.2839H29.7208V17.7784H33.2095L45.8197 37.004V17.7784H49.3084Z" fill="#090909"/>
<path d="M58.7022 39.6878H70.4105L70.3765 43.2839H55.3838H55.1795V17.7784H58.7022H70.4105L70.3765 21.4095H58.7022V28.6542H69.2533L69.2193 32.18H58.7022V39.6878Z" fill="#090909"/>
<path d="M94.1675 17.2696C95.8693 17.2463 97.4803 17.5795 99.0005 18.2695C100.532 18.9478 101.843 19.8775 102.932 21.0586C104.021 22.2398 104.877 23.6606 105.501 25.3212C106.125 26.9702 106.426 28.7185 106.403 30.5662C106.437 33.0571 105.921 35.32 104.855 37.3548C103.788 39.3779 102.313 40.9625 100.43 42.1086C98.5581 43.2429 96.4819 43.7926 94.2015 43.7575C92.5451 43.7926 90.9568 43.471 89.4365 42.7927C87.9276 42.1027 86.6229 41.1672 85.5224 39.986C84.4333 38.8049 83.571 37.3899 82.9357 35.741C82.3003 34.0921 81.9997 32.3671 82.0337 30.5662C82.011 28.7185 82.306 26.9702 82.9187 25.3212C83.5426 23.6606 84.3935 22.2398 85.4713 21.0586C86.5605 19.8775 87.8595 18.9478 89.3684 18.2695C90.8773 17.5795 92.477 17.2463 94.1675 17.2696ZM94.2015 39.8983C96.7088 39.8983 98.7226 39.0505 100.243 37.3548C101.763 35.6474 102.523 33.3845 102.523 30.5662C102.523 27.7361 101.752 25.4499 100.209 23.7074C98.6772 21.9533 96.6634 21.0762 94.1675 21.0762C91.7396 21.0762 89.7542 21.965 88.2112 23.7425C86.6683 25.5084 85.8968 27.7829 85.8968 30.5662C85.8968 33.3027 86.6739 35.5422 88.2282 37.2846C89.7939 39.0271 91.785 39.8983 94.2015 39.8983Z" fill="#090909"/>
<path d="M125.991 21.4095L114.317 21.3744V29.0927L124.221 29.1278L124.17 32.6186H114.317V43.2839H110.794V17.7784H114.317L126.025 17.8134L125.991 21.4095Z" fill="#090909"/>
<path d="M155.789 43.2839L153.236 36.6005H142.515L139.997 43.2839H135.878L145.885 17.7784H149.646H149.901L159.908 43.2839H155.789ZM143.758 33.3378H152.028L147.876 22.4444L143.758 33.3378Z" fill="#090909"/>
<path d="M235.92 43.7601H232.411V18.6628H235.92V43.7601Z" fill="#090909"/>
<path d="M261.249 18.6628V43.7601H257.773L245.211 24.8422V43.7601H241.735V18.6628H245.211L257.773 37.5807V18.6628H261.249Z" fill="#090909"/>
<path d="M284 18.6628V22.2358H276.134V43.7601H272.624V22.2358H264.741V18.6628H284Z" fill="#090909"/>
<path d="M215.68 33.3029C215.68 46.0087 205.38 56.3087 192.674 56.3087C179.968 56.3087 169.668 46.0087 169.668 33.3029C169.668 20.5971 179.968 10.297 192.674 10.297C205.38 10.297 215.68 20.5971 215.68 33.3029Z" fill="#E0F27B"/>
<path fill-rule="evenodd" clip-rule="evenodd" d="M208.523 0.536957V53.8675L223.258 33.454L226.834 36.0003L204.123 67.4631V15.9133L186.571 44.1069V14.903L171.822 34.891L168.273 32.3078L190.971 1.54726V28.7306L208.523 0.536957Z" fill="#090909"/>
</svg>
