<svg width="284" height="68" viewBox="0 0 284 68" fill="none" xmlns="http://www.w3.org/2000/svg">
<path d="M13.0947 17.2696C14.7965 17.2463 16.4075 17.5795 17.9278 18.2695C19.4594 18.9478 20.7698 19.8775 21.8589 21.0586C22.9481 22.2398 23.8046 23.6606 24.4286 25.3212C25.0526 26.9702 25.3533 28.7185 25.3306 30.5662C25.3646 33.0571 24.8484 35.32 23.7819 37.3548C22.7155 39.3779 21.2406 40.9625 19.3573 42.1086C17.4853 43.2429 15.4091 43.7926 13.1287 43.7575C11.4723 43.7926 9.88401 43.471 8.36374 42.7927C6.85483 42.1027 5.55012 41.1672 4.44963 39.986C3.36049 38.8049 2.49825 37.3899 1.86292 35.741C1.22758 34.0921 0.926934 32.3671 0.96097 30.5662C0.938279 28.7185 1.23326 26.9702 1.8459 25.3212C2.46989 23.6606 3.32078 22.2398 4.39858 21.0586C5.48772 19.8775 6.78675 18.9478 8.29567 18.2695C9.80459 17.5795 11.4043 17.2463 13.0947 17.2696ZM13.1287 39.8983C15.636 39.8983 17.6498 39.0505 19.1701 37.3548C20.6904 35.6474 21.4505 33.3845 21.4505 30.5662C21.4505 27.7361 20.679 25.4499 19.1361 23.7074C17.6044 21.9533 15.5907 21.0762 13.0947 21.0762C10.6668 21.0762 8.68141 21.965 7.13846 23.7425C5.5955 25.5084 4.82403 27.7829 4.82403 30.5662C4.82403 33.3027 5.60118 35.5422 7.15547 37.2846C8.72112 39.0271 10.7122 39.8983 13.1287 39.8983Z" fill="white"/>
<path d="M49.3087 17.7784V43.2839H45.8201L33.2098 24.0583V43.2839H29.7212V17.7784H33.2098L45.8201 37.004V17.7784H49.3087Z" fill="white"/>
<path d="M58.7026 39.6878H70.4109L70.3769 43.2839H55.3841H55.1799V17.7784H58.7026H70.4109L70.3769 21.4095H58.7026V28.6542H69.2537L69.2196 32.18H58.7026V39.6878Z" fill="white"/>
<path d="M94.1678 17.2696C95.8696 17.2463 97.4807 17.5795 99.0009 18.2695C100.533 18.9478 101.843 19.8775 102.932 21.0586C104.021 22.2398 104.878 23.6606 105.502 25.3212C106.126 26.9702 106.426 28.7185 106.404 30.5662C106.438 33.0571 105.922 35.32 104.855 37.3548C103.789 39.3779 102.314 40.9625 100.43 42.1086C98.5584 43.2429 96.4823 43.7926 94.2019 43.7575C92.5455 43.7926 90.9571 43.471 89.4369 42.7927C87.9279 42.1027 86.6232 41.1672 85.5228 39.986C84.4336 38.8049 83.5714 37.3899 82.936 35.741C82.3007 34.0921 82.0001 32.3671 82.0341 30.5662C82.0114 28.7185 82.3064 26.9702 82.919 25.3212C83.543 23.6606 84.3939 22.2398 85.4717 21.0586C86.5609 19.8775 87.8599 18.9478 89.3688 18.2695C90.8777 17.5795 92.4774 17.2463 94.1678 17.2696ZM94.2019 39.8983C96.7092 39.8983 98.723 39.0505 100.243 37.3548C101.763 35.6474 102.524 33.3845 102.524 30.5662C102.524 27.7361 101.752 25.4499 100.209 23.7074C98.6776 21.9533 96.6638 21.0762 94.1678 21.0762C91.74 21.0762 89.7545 21.965 88.2116 23.7425C86.6686 25.5084 85.8972 27.7829 85.8972 30.5662C85.8972 33.3027 86.6743 35.5422 88.2286 37.2846C89.7942 39.0271 91.7853 39.8983 94.2019 39.8983Z" fill="white"/>
<path d="M125.991 21.4095L114.317 21.3744V29.0927L124.221 29.1278L124.17 32.6186H114.317V43.2839H110.794V17.7784H114.317L126.025 17.8134L125.991 21.4095Z" fill="white"/>
<path d="M155.79 43.2839L153.237 36.6005H142.516L139.997 43.2839H135.879L145.885 17.7784H149.646H149.901L159.908 43.2839H155.79ZM143.758 33.3378H152.029L147.876 22.4444L143.758 33.3378Z" fill="white"/>
<path d="M235.92 43.7601H232.411V18.6628H235.92V43.7601Z" fill="white"/>
<path d="M261.249 18.6628V43.7601H257.773L245.211 24.8422V43.7601H241.735V18.6628H245.211L257.773 37.5807V18.6628H261.249Z" fill="white"/>
<path d="M284 18.6628V22.2358H276.134V43.7601H272.624V22.2358H264.741V18.6628H284Z" fill="white"/>
<path d="M215.68 33.3029C215.68 46.0087 205.38 56.3087 192.674 56.3087C179.968 56.3087 169.668 46.0087 169.668 33.3029C169.668 20.5971 179.968 10.297 192.674 10.297C205.38 10.297 215.68 20.5971 215.68 33.3029Z" fill="#090909"/>
<path fill-rule="evenodd" clip-rule="evenodd" d="M208.523 0.536957V53.8675L223.258 33.454L226.834 36.0003L204.123 67.4631V15.9133L186.571 44.1069V14.903L171.822 34.891L168.274 32.3078L190.971 1.54726V28.7306L208.523 0.536957Z" fill="#E0F27B"/>
</svg>
