<svg id="Layer_1" data-name="Layer 1" xmlns="http://www.w3.org/2000/svg" viewBox="0 0 21.5 21.5"><defs><style>.cls-1{fill:#29303a;}</style></defs><path class="cls-1" d="M21.77,3.25h-4c-2,0-3,.93-3,2.85v6.8c0,1.92,1,2.85,3,2.85h4c2,0,3-.93,3-2.85V6.1C24.75,4.18,23.78,3.25,21.77,3.25Zm1.48,9.65c0,1-.22,1.35-1.48,1.35h-4c-1.26,0-1.48-.35-1.48-1.35V6.1c0-1,.22-1.35,1.48-1.35h4c1.26,0,1.48.35,1.48,1.35Zm-1.48,4.35h-4c-2,0-3,.93-3,2.85v1.8c0,1.92,1,2.85,3,2.85h4c2,0,3-.93,3-2.85V20.1C24.75,18.18,23.78,17.25,21.77,17.25Zm1.48,4.65c0,1-.22,1.35-1.48,1.35h-4c-1.26,0-1.48-.35-1.48-1.35V20.1c0-1,.22-1.35,1.48-1.35h4c1.26,0,1.48.35,1.48,1.35Zm-13-18.65h-4c-2,0-3,.93-3,2.85V21.9c0,1.92,1,2.85,3,2.85h4c2,0,3-.93,3-2.85V6.1C13.25,4.18,12.28,3.25,10.27,3.25ZM11.75,21.9c0,1-.22,1.35-1.48,1.35h-4c-1.26,0-1.48-.35-1.48-1.35V6.1c0-1,.22-1.35,1.48-1.35h4c1.26,0,1.48.35,1.48,1.35Z" transform="translate(-3.25 -3.25)"/></svg>