<svg id="Layer_1" data-name="Layer 1" xmlns="http://www.w3.org/2000/svg" viewBox="0 0 19.5 19.5"><defs><style>.cls-1{fill:#29303a;}</style></defs><path class="cls-1" d="M12.7.25H7.3c-4.94,0-7,2.11-7,7.05v5.4c0,4.94,2.11,7.05,7.05,7.05h5.4c4.94,0,7.05-2.11,7.05-7V7.3C19.75,2.36,17.64.25,12.7.25ZM18.25,12.7c0,4.1-1.45,5.55-5.55,5.55H7.3c-2.41,0-3.9-.5-4.72-1.75l3.88-2.6A1.26,1.26,0,0,1,7.92,14l.3.26a2.75,2.75,0,0,0,3.52,0L15.48,11A1.25,1.25,0,0,1,17,11l1.21,1Zm0-2.62L18,9.88a2.73,2.73,0,0,0-3.51,0l-3.75,3.21a1.23,1.23,0,0,1-1.55,0l-.31-.27a2.81,2.81,0,0,0-3.28-.18L2,15.09a9.84,9.84,0,0,1-.24-2.39V7.3c0-4.1,1.45-5.55,5.55-5.55h5.4c4.1,0,5.55,1.45,5.55,5.55ZM7.3,3.85A2.55,2.55,0,1,0,9.85,6.4,2.55,2.55,0,0,0,7.3,3.85Zm0,3.6a1,1,0,1,1,1-1A1,1,0,0,1,7.3,7.45Z" transform="translate(-0.25 -0.25)"/></svg>