<svg id="Layer_1" data-name="Layer 1" xmlns="http://www.w3.org/2000/svg" viewBox="0 0 19.97 19.95"><defs><style>.cls-1{fill:#29303a;}</style></defs><path class="cls-1" d="M18.61,6.39h0l-.52.53h0l.53-.54L14.07,1.87h0A5.5,5.5,0,0,0,9.9.26h0L4.9.5h0A4.6,4.6,0,0,0,.5,4.88l.76,0h0l-.74,0h0l-.24,5h0a5.59,5.59,0,0,0,1.61,4.18L6.4,18.59a5.53,5.53,0,0,0,7.81,0l-.53-.53h0l.53.53h0l4.39-4.39A5.53,5.53,0,0,0,18.61,6.39Zm-1.07,6.75-4.38,4.38a4,4,0,0,1-5.69,0L2.94,13A4,4,0,0,1,1.75,10L2,5A3.11,3.11,0,0,1,5,2H5l0-.75h0L5,2l5-.24h0a4,4,0,0,1,3,1.17l.53-.53h0L13,2.93h0l4.53,4.52A4,4,0,0,1,17.54,13.14ZM14.7,10.7l-4,4a.75.75,0,0,0,0,1.06.77.77,0,0,0,1.07,0l4-4A.75.75,0,0,0,14.7,10.7Zm-7-6.22A3.25,3.25,0,1,0,11,7.73,3.25,3.25,0,0,0,7.73,4.48Zm0,5A1.75,1.75,0,1,1,9.48,7.73,1.76,1.76,0,0,1,7.73,9.48Z" transform="translate(-0.25 -0.25)"/></svg>