<svg id="Layer_1" data-name="Layer 1" xmlns="http://www.w3.org/2000/svg" viewBox="0 0 20.22 24.97"><defs><style>.cls-1{fill:#29303a;}.cls-2,.cls-3{fill:none;stroke:#29303a;strokeWidth:1.5px;}.cls-2{1,199: <svg id="Layer_1" data-name="Layer 1" xmlns="http://www.w3.org/2000/svg" viewBox="0 0 20.22 24.97"><defs><style>.cls-1{fill:#29303a;}.cls-2,.cls-3{fill:none;stroke:#29303a;strokeWidth:1.5px;}.cls-2{1,199: <svg id="Layer_1" data-name="Layer 1" xmlns="http://www.w3.org/2000/svg" viewBox="0 0 20.22 24.97"><defs><style>.cls-1{fill:#29303a;}.cls-2,.cls-3{fill:none;stroke:#29303a;strokeWidth:1.5px;}.cls-2{1,199: <svg id="Layer_1" data-name="Layer 1" xmlns="http://www.w3.org/2000/svg" viewBox="0 0 20.22 24.97"><defs><style>.cls-1{fill:#29303a;}.cls-2,.cls-3{fill:none;stroke:#29303a;strokeWidth:1.5px;}.cls-2{strokeLinecap:round;strokeLinejoin:round;}.cls-3{strokeMiterlimit:10;}</style></defs><path class="cls-1" d="M23.66,18l-1.33-2.22a4.86,4.86,0,0,1-.56-2V10.4a7.75,7.75,0,0,0-15.5,0v3.37a4.87,4.87,0,0,1-.55,2L4.37,18A3,3,0,0,0,6,22.53a25.18,25.18,0,0,0,8,1.31,25.12,25.12,0,0,0,8-1.31A3.08,3.08,0,0,0,23.66,18ZM22.5,20.16a1.59,1.59,0,0,1-1,.95,23.48,23.48,0,0,1-15,0,1.63,1.63,0,0,1-1-.94,1.58,1.58,0,0,1,.19-1.38L7,16.55a6.2,6.2,0,0,0,.77-2.78V10.4a6.25,6.25,0,0,1,12.5,0v3.37A6.51,6.51,0,0,0,21,16.56l1.35,2.22A1.63,1.63,0,0,1,22.5,20.16Z" transform="translate(-3.88 -1.51)"/><path class="cls-2" d="M16.18,3.73a7.95,7.95,0,0,0-4.31,0A2.3,2.3,0,0,1,14,2.26,2.33,2.33,0,0,1,16.18,3.73Z" transform="translate(-3.88 -1.51)"/><path class="cls-3" d="M17.52,22.24a3.5,3.5,0,0,1-7,0" transform="translate(-3.88 -1.51)"/></svg>:round;strokeLinejoin:round;}.cls-3{strokeMiterlimit:10;}</style></defs><path class="cls-1" d="M23.66,18l-1.33-2.22a4.86,4.86,0,0,1-.56-2V10.4a7.75,7.75,0,0,0-15.5,0v3.37a4.87,4.87,0,0,1-.55,2L4.37,18A3,3,0,0,0,6,22.53a25.18,25.18,0,0,0,8,1.31,25.12,25.12,0,0,0,8-1.31A3.08,3.08,0,0,0,23.66,18ZM22.5,20.16a1.59,1.59,0,0,1-1,.95,23.48,23.48,0,0,1-15,0,1.63,1.63,0,0,1-1-.94,1.58,1.58,0,0,1,.19-1.38L7,16.55a6.2,6.2,0,0,0,.77-2.78V10.4a6.25,6.25,0,0,1,12.5,0v3.37A6.51,6.51,0,0,0,21,16.56l1.35,2.22A1.63,1.63,0,0,1,22.5,20.16Z" transform="translate(-3.88 -1.51)"/><path class="cls-2" d="M16.18,3.73a7.95,7.95,0,0,0-4.31,0A2.3,2.3,0,0,1,14,2.26,2.33,2.33,0,0,1,16.18,3.73Z" transform="translate(-3.88 -1.51)"/><path class="cls-3" d="M17.52,22.24a3.5,3.5,0,0,1-7,0" transform="translate(-3.88 -1.51)"/></svg>1,199: <svg id="Layer_1" data-name="Layer 1" xmlns="http://www.w3.org/2000/svg" viewBox="0 0 20.22 24.97"><defs><style>.cls-1{fill:#29303a;}.cls-2,.cls-3{fill:none;stroke:#29303a;strokeWidth:1.5px;}.cls-2{strokeLinecap:round;strokeLinejoin:round;}.cls-3{strokeMiterlimit:10;}</style></defs><path class="cls-1" d="M23.66,18l-1.33-2.22a4.86,4.86,0,0,1-.56-2V10.4a7.75,7.75,0,0,0-15.5,0v3.37a4.87,4.87,0,0,1-.55,2L4.37,18A3,3,0,0,0,6,22.53a25.18,25.18,0,0,0,8,1.31,25.12,25.12,0,0,0,8-1.31A3.08,3.08,0,0,0,23.66,18ZM22.5,20.16a1.59,1.59,0,0,1-1,.95,23.48,23.48,0,0,1-15,0,1.63,1.63,0,0,1-1-.94,1.58,1.58,0,0,1,.19-1.38L7,16.55a6.2,6.2,0,0,0,.77-2.78V10.4a6.25,6.25,0,0,1,12.5,0v3.37A6.51,6.51,0,0,0,21,16.56l1.35,2.22A1.63,1.63,0,0,1,22.5,20.16Z" transform="translate(-3.88 -1.51)"/><path class="cls-2" d="M16.18,3.73a7.95,7.95,0,0,0-4.31,0A2.3,2.3,0,0,1,14,2.26,2.33,2.33,0,0,1,16.18,3.73Z" transform="translate(-3.88 -1.51)"/><path class="cls-3" d="M17.52,22.24a3.5,3.5,0,0,1-7,0" transform="translate(-3.88 -1.51)"/></svg>:round;strokeLinejoin:round;}.cls-3{strokeMiterlimit:10;}</style></defs><path class="cls-1" d="M23.66,18l-1.33-2.22a4.86,4.86,0,0,1-.56-2V10.4a7.75,7.75,0,0,0-15.5,0v3.37a4.87,4.87,0,0,1-.55,2L4.37,18A3,3,0,0,0,6,22.53a25.18,25.18,0,0,0,8,1.31,25.12,25.12,0,0,0,8-1.31A3.08,3.08,0,0,0,23.66,18ZM22.5,20.16a1.59,1.59,0,0,1-1,.95,23.48,23.48,0,0,1-15,0,1.63,1.63,0,0,1-1-.94,1.58,1.58,0,0,1,.19-1.38L7,16.55a6.2,6.2,0,0,0,.77-2.78V10.4a6.25,6.25,0,0,1,12.5,0v3.37A6.51,6.51,0,0,0,21,16.56l1.35,2.22A1.63,1.63,0,0,1,22.5,20.16Z" transform="translate(-3.88 -1.51)"/><path class="cls-2" d="M16.18,3.73a7.95,7.95,0,0,0-4.31,0A2.3,2.3,0,0,1,14,2.26,2.33,2.33,0,0,1,16.18,3.73Z" transform="translate(-3.88 -1.51)"/><path class="cls-3" d="M17.52,22.24a3.5,3.5,0,0,1-7,0" transform="translate(-3.88 -1.51)"/></svg>1,199: <svg id="Layer_1" data-name="Layer 1" xmlns="http://www.w3.org/2000/svg" viewBox="0 0 20.22 24.97"><defs><style>.cls-1{fill:#29303a;}.cls-2,.cls-3{fill:none;stroke:#29303a;strokeWidth:1.5px;}.cls-2{strokeLinecap:round;strokeLinejoin:round;}.cls-3{strokeMiterlimit:10;}</style></defs><path class="cls-1" d="M23.66,18l-1.33-2.22a4.86,4.86,0,0,1-.56-2V10.4a7.75,7.75,0,0,0-15.5,0v3.37a4.87,4.87,0,0,1-.55,2L4.37,18A3,3,0,0,0,6,22.53a25.18,25.18,0,0,0,8,1.31,25.12,25.12,0,0,0,8-1.31A3.08,3.08,0,0,0,23.66,18ZM22.5,20.16a1.59,1.59,0,0,1-1,.95,23.48,23.48,0,0,1-15,0,1.63,1.63,0,0,1-1-.94,1.58,1.58,0,0,1,.19-1.38L7,16.55a6.2,6.2,0,0,0,.77-2.78V10.4a6.25,6.25,0,0,1,12.5,0v3.37A6.51,6.51,0,0,0,21,16.56l1.35,2.22A1.63,1.63,0,0,1,22.5,20.16Z" transform="translate(-3.88 -1.51)"/><path class="cls-2" d="M16.18,3.73a7.95,7.95,0,0,0-4.31,0A2.3,2.3,0,0,1,14,2.26,2.33,2.33,0,0,1,16.18,3.73Z" transform="translate(-3.88 -1.51)"/><path class="cls-3" d="M17.52,22.24a3.5,3.5,0,0,1-7,0" transform="translate(-3.88 -1.51)"/></svg>1,199: <svg id="Layer_1" data-name="Layer 1" xmlns="http://www.w3.org/2000/svg" viewBox="0 0 20.22 24.97"><defs><style>.cls-1{fill:#29303a;}.cls-2,.cls-3{fill:none;stroke:#29303a;strokeWidth:1.5px;}.cls-2{strokeLinecap:round;strokeLinejoin:round;}.cls-3{strokeMiterlimit:10;}</style></defs><path class="cls-1" d="M23.66,18l-1.33-2.22a4.86,4.86,0,0,1-.56-2V10.4a7.75,7.75,0,0,0-15.5,0v3.37a4.87,4.87,0,0,1-.55,2L4.37,18A3,3,0,0,0,6,22.53a25.18,25.18,0,0,0,8,1.31,25.12,25.12,0,0,0,8-1.31A3.08,3.08,0,0,0,23.66,18ZM22.5,20.16a1.59,1.59,0,0,1-1,.95,23.48,23.48,0,0,1-15,0,1.63,1.63,0,0,1-1-.94,1.58,1.58,0,0,1,.19-1.38L7,16.55a6.2,6.2,0,0,0,.77-2.78V10.4a6.25,6.25,0,0,1,12.5,0v3.37A6.51,6.51,0,0,0,21,16.56l1.35,2.22A1.63,1.63,0,0,1,22.5,20.16Z" transform="translate(-3.88 -1.51)"/><path class="cls-2" d="M16.18,3.73a7.95,7.95,0,0,0-4.31,0A2.3,2.3,0,0,1,14,2.26,2.33,2.33,0,0,1,16.18,3.73Z" transform="translate(-3.88 -1.51)"/><path class="cls-3" d="M17.52,22.24a3.5,3.5,0,0,1-7,0" transform="translate(-3.88 -1.51)"/></svg>1,199: <svg id="Layer_1" data-name="Layer 1" xmlns="http://www.w3.org/2000/svg" viewBox="0 0 20.22 24.97"><defs><style>.cls-1{fill:#29303a;}.cls-2,.cls-3{fill:none;stroke:#29303a;strokeWidth:1.5px;}.cls-2{strokeLinecap:round;strokeLinejoin:round;}.cls-3{strokeMiterlimit:10;}</style></defs><path class="cls-1" d="M23.66,18l-1.33-2.22a4.86,4.86,0,0,1-.56-2V10.4a7.75,7.75,0,0,0-15.5,0v3.37a4.87,4.87,0,0,1-.55,2L4.37,18A3,3,0,0,0,6,22.53a25.18,25.18,0,0,0,8,1.31,25.12,25.12,0,0,0,8-1.31A3.08,3.08,0,0,0,23.66,18ZM22.5,20.16a1.59,1.59,0,0,1-1,.95,23.48,23.48,0,0,1-15,0,1.63,1.63,0,0,1-1-.94,1.58,1.58,0,0,1,.19-1.38L7,16.55a6.2,6.2,0,0,0,.77-2.78V10.4a6.25,6.25,0,0,1,12.5,0v3.37A6.51,6.51,0,0,0,21,16.56l1.35,2.22A1.63,1.63,0,0,1,22.5,20.16Z" transform="translate(-3.88 -1.51)"/><path class="cls-2" d="M16.18,3.73a7.95,7.95,0,0,0-4.31,0A2.3,2.3,0,0,1,14,2.26,2.33,2.33,0,0,1,16.18,3.73Z" transform="translate(-3.88 -1.51)"/><path class="cls-3" d="M17.52,22.24a3.5,3.5,0,0,1-7,0" transform="translate(-3.88 -1.51)"/></svg>:round;strokeLinejoin:round;}.cls-3{strokeMiterlimit:10;}</style></defs><path class="cls-1" d="M23.66,18l-1.33-2.22a4.86,4.86,0,0,1-.56-2V10.4a7.75,7.75,0,0,0-15.5,0v3.37a4.87,4.87,0,0,1-.55,2L4.37,18A3,3,0,0,0,6,22.53a25.18,25.18,0,0,0,8,1.31,25.12,25.12,0,0,0,8-1.31A3.08,3.08,0,0,0,23.66,18ZM22.5,20.16a1.59,1.59,0,0,1-1,.95,23.48,23.48,0,0,1-15,0,1.63,1.63,0,0,1-1-.94,1.58,1.58,0,0,1,.19-1.38L7,16.55a6.2,6.2,0,0,0,.77-2.78V10.4a6.25,6.25,0,0,1,12.5,0v3.37A6.51,6.51,0,0,0,21,16.56l1.35,2.22A1.63,1.63,0,0,1,22.5,20.16Z" transform="translate(-3.88 -1.51)"/><path class="cls-2" d="M16.18,3.73a7.95,7.95,0,0,0-4.31,0A2.3,2.3,0,0,1,14,2.26,2.33,2.33,0,0,1,16.18,3.73Z" transform="translate(-3.88 -1.51)"/><path class="cls-3" d="M17.52,22.24a3.5,3.5,0,0,1-7,0" transform="translate(-3.88 -1.51)"/></svg>