<svg id="Layer_1" data-name="Layer 1" xmlns="http://www.w3.org/2000/svg" viewBox="0 0 20 17.2"><defs><style>.cls-1{fill:#292d32;}</style></defs><path class="cls-1" d="M23.3,11H4.7a.7.7,0,0,1-.7-.69.71.71,0,0,1,.7-.7H23.3a.71.71,0,0,1,.7.7A.7.7,0,0,1,23.3,11Z" transform="translate(-4 -5)"/><path class="cls-1" d="M10.28,18.48H8.42a.71.71,0,0,1-.7-.7.7.7,0,0,1,.7-.69h1.86a.7.7,0,0,1,.7.69A.71.71,0,0,1,10.28,18.48Z" transform="translate(-4 -5)"/><path class="cls-1" d="M16.33,18.48H12.6a.7.7,0,0,1-.69-.7.69.69,0,0,1,.69-.69h3.73a.69.69,0,0,1,.69.69A.7.7,0,0,1,16.33,18.48Z" transform="translate(-4 -5)"/><path class="cls-1" d="M19.16,5H8.83C5.13,5,4,6.12,4,9.78v7.64c0,3.66,1.13,4.78,4.83,4.78H19.17c3.7,0,4.83-1.12,4.82-4.79V9.78C24,6.12,22.87,5,19.16,5ZM22.6,17.41c0,2.88-.52,3.39-3.44,3.39H8.83c-2.92,0-3.43-.51-3.43-3.39V9.78c0-2.88.51-3.39,3.43-3.39H19.16c2.92,0,3.44.51,3.44,3.39Z" transform="translate(-4 -5)"/></svg>